<?xml version="1.0"?>
<!-- Generated by SVGo -->
<svg width="2400" height="1400"
     xmlns="http://www.w3.org/2000/svg"
     xmlns:xlink="http://www.w3.org/1999/xlink">
<title>Musik Notez</title>
<g transform="translate(20.000000,40.000000)">
<text x="0.000000" y="-0.000000" dx="0.000000" dy="-0.000000" style="font-size:24px;font-weight:bold">♯ F C G D A E (B)</text></g>
<g transform="translate(20.000000,80.000000)">
<text x="0.000000" y="-0.000000" dx="0.000000" dy="-0.000000" style="font-size:24px;font-weight:bold">♭ B E A D G C (F)</text></g>
<g transform="translate(500.000000,600.000000)">
<text x="0.000000" y="-0.000000" dx="0.000000" dy="-0.000000" >Sheet of Notes, created by ernestmicklei.com. CC BY-ND license.</text></g>
<g transform="translate(700,240)">
<line x1="-700" y1="-34.5" x2="700" y2="-34.5" style="stroke-width:2px;stroke:black"/>
<line x1="-700" y1="-51.5" x2="700" y2="-51.5" style="stroke-width:2px;stroke:black"/>
<line x1="-700" y1="-68.5" x2="700" y2="-68.5" style="stroke-width:2px;stroke:black"/>
<line x1="-700" y1="-85.5" x2="700" y2="-85.5" style="stroke-width:2px;stroke:black"/>
<line x1="-700" y1="-102.5" x2="700" y2="-102.5" style="stroke-width:2px;stroke:black"/>
<g transform="translate(21.000000,-8.500000)">
<line x1="0" y1="-0" x2="0" y2="-60" style="stroke-width:2px;stroke:black;stroke-linecap:round"/>
<g transform="translate(11.500000,-60.000000)">
<g transform="rotate(-15)">
<ellipse cx="0.000000" cy="-0.000000" rx="12.000000" ry="8.000000" style="stroke-width:2px;stroke:black;fill:black"/>
</g>
</g>
</g>
<g transform="translate(29.000000,-108.500000)">
<text x="0.000000" y="-0.000000" dx="0.000000" dy="-0.000000" style="font-size:24px;font-weight:bold">B</text></g>
<g transform="translate(63.000000,-17.000000)">
<line x1="0" y1="-0" x2="0" y2="-60" style="stroke-width:2px;stroke:black;stroke-linecap:round"/>
<g transform="translate(11.500000,-60.000000)">
<g transform="rotate(-15)">
<ellipse cx="0.000000" cy="-0.000000" rx="12.000000" ry="8.000000" style="stroke-width:2px;stroke:black;fill:black"/>
</g>
</g>
</g>
<g transform="translate(71.000000,-117.000000)">
<text x="0.000000" y="-0.000000" dx="0.000000" dy="-0.000000" style="font-size:24px;font-weight:bold">C</text></g>
<g transform="translate(105.000000,-25.500000)">
<line x1="0" y1="-0" x2="0" y2="-60" style="stroke-width:2px;stroke:black;stroke-linecap:round"/>
<g transform="translate(11.500000,-60.000000)">
<g transform="rotate(-15)">
<ellipse cx="0.000000" cy="-0.000000" rx="12.000000" ry="8.000000" style="stroke-width:2px;stroke:black;fill:black"/>
</g>
</g>
</g>
<g transform="translate(113.000000,-125.500000)">
<text x="0.000000" y="-0.000000" dx="0.000000" dy="-0.000000" style="font-size:24px;font-weight:bold">D</text></g>
<g transform="translate(147.000000,-34.000000)">
<line x1="0" y1="-0" x2="0" y2="-60" style="stroke-width:2px;stroke:black;stroke-linecap:round"/>
<g transform="translate(11.500000,-60.000000)">
<g transform="rotate(-15)">
<ellipse cx="0.000000" cy="-0.000000" rx="12.000000" ry="8.000000" style="stroke-width:2px;stroke:black;fill:black"/>
</g>
</g>
</g>
<g transform="translate(155.000000,-134.000000)">
<text x="0.000000" y="-0.000000" dx="0.000000" dy="-0.000000" style="font-size:24px;font-weight:bold">E</text></g>
<g transform="translate(189.000000,-42.500000)">
<line x1="0" y1="-0" x2="0" y2="-60" style="stroke-width:2px;stroke:black;stroke-linecap:round"/>
<g transform="translate(11.500000,-60.000000)">
<g transform="rotate(-15)">
<ellipse cx="0.000000" cy="-0.000000" rx="12.000000" ry="8.000000" style="stroke-width:2px;stroke:black;fill:black"/>
</g>
</g>
</g>
<g transform="translate(197.000000,-142.500000)">
<text x="0.000000" y="-0.000000" dx="0.000000" dy="-0.000000" style="font-size:24px;font-weight:bold">F</text></g>
<g transform="translate(231.000000,-51.000000)">
<line x1="0" y1="-0" x2="0" y2="-60" style="stroke-width:2px;stroke:black;stroke-linecap:round"/>
<g transform="translate(11.500000,-60.000000)">
<g transform="rotate(-15)">
<ellipse cx="0.000000" cy="-0.000000" rx="12.000000" ry="8.000000" style="stroke-width:2px;stroke:black;fill:black"/>
</g>
</g>
</g>
<g transform="translate(239.000000,-151.000000)">
<text x="0.000000" y="-0.000000" dx="0.000000" dy="-0.000000" style="font-size:24px;font-weight:bold">G</text></g>
<g transform="translate(273.000000,-59.500000)">
<line x1="-6" y1="-60" x2="29" y2="-60" style="stroke-width:2px;stroke:black"/>
</g>
<g transform="translate(273.000000,-59.500000)">
<line x1="0" y1="-0" x2="0" y2="-60" style="stroke-width:2px;stroke:black;stroke-linecap:round"/>
<g transform="translate(11.500000,-60.000000)">
<g transform="rotate(-15)">
<ellipse cx="0.000000" cy="-0.000000" rx="12.000000" ry="8.000000" style="stroke-width:2px;stroke:black;fill:black"/>
</g>
</g>
</g>
<g transform="translate(281.000000,-159.500000)">
<text x="0.000000" y="-0.000000" dx="0.000000" dy="-0.000000" style="font-size:24px;font-weight:bold">A</text></g>
<g transform="translate(315.000000,-59.500000)">
<line x1="-6" y1="-60" x2="29" y2="-60" style="stroke-width:2px;stroke:black"/>
</g>
<g transform="translate(315.000000,-68.000000)">
<line x1="0" y1="-0" x2="0" y2="-60" style="stroke-width:2px;stroke:black;stroke-linecap:round"/>
<g transform="translate(11.500000,-60.000000)">
<g transform="rotate(-15)">
<ellipse cx="0.000000" cy="-0.000000" rx="12.000000" ry="8.000000" style="stroke-width:2px;stroke:black;fill:black"/>
</g>
</g>
</g>
<g transform="translate(323.000000,-168.000000)">
<text x="0.000000" y="-0.000000" dx="0.000000" dy="-0.000000" style="font-size:24px;font-weight:bold">B</text></g>
<g transform="translate(357.000000,-59.500000)">
<line x1="-6" y1="-60" x2="29" y2="-60" style="stroke-width:2px;stroke:black"/>
</g>
<g transform="translate(357.000000,-76.500000)">
<line x1="-6" y1="-60" x2="29" y2="-60" style="stroke-width:2px;stroke:black"/>
</g>
<g transform="translate(369.000000,-106.000000)">
<text x="0.000000" y="-0.000000" dx="0.000000" dy="-0.000000" >2</text></g>
<g transform="translate(357.000000,-76.500000)">
<line x1="0" y1="-0" x2="0" y2="-60" style="stroke-width:2px;stroke:black;stroke-linecap:round"/>
<g transform="translate(11.500000,-60.000000)">
<g transform="rotate(-15)">
<ellipse cx="0.000000" cy="-0.000000" rx="12.000000" ry="8.000000" style="stroke-width:2px;stroke:black;fill:black"/>
</g>
</g>
</g>
<g transform="translate(365.000000,-176.500000)">
<text x="0.000000" y="-0.000000" dx="0.000000" dy="-0.000000" style="font-size:24px;font-weight:bold">C</text></g>
<g transform="translate(399.000000,-59.500000)">
<line x1="-6" y1="-60" x2="29" y2="-60" style="stroke-width:2px;stroke:black"/>
</g>
<g transform="translate(399.000000,-76.500000)">
<line x1="-6" y1="-60" x2="29" y2="-60" style="stroke-width:2px;stroke:black"/>
</g>
<g transform="translate(411.000000,-106.000000)">
<text x="0.000000" y="-0.000000" dx="0.000000" dy="-0.000000" >2</text></g>
<g transform="translate(399.000000,-85.000000)">
<line x1="0" y1="-0" x2="0" y2="-60" style="stroke-width:2px;stroke:black;stroke-linecap:round"/>
<g transform="translate(11.500000,-60.000000)">
<g transform="rotate(-15)">
<ellipse cx="0.000000" cy="-0.000000" rx="12.000000" ry="8.000000" style="stroke-width:2px;stroke:black;fill:black"/>
</g>
</g>
</g>
<g transform="translate(407.000000,-185.000000)">
<text x="0.000000" y="-0.000000" dx="0.000000" dy="-0.000000" style="font-size:24px;font-weight:bold">D</text></g>
<g transform="translate(441.000000,-59.500000)">
<line x1="-6" y1="-60" x2="29" y2="-60" style="stroke-width:2px;stroke:black"/>
</g>
<g transform="translate(441.000000,-76.500000)">
<line x1="-6" y1="-60" x2="29" y2="-60" style="stroke-width:2px;stroke:black"/>
</g>
<g transform="translate(441.000000,-93.500000)">
<line x1="-6" y1="-60" x2="29" y2="-60" style="stroke-width:2px;stroke:black"/>
</g>
<g transform="translate(453.000000,-106.000000)">
<text x="0.000000" y="-0.000000" dx="0.000000" dy="-0.000000" >3</text></g>
<g transform="translate(441.000000,-93.500000)">
<line x1="0" y1="-0" x2="0" y2="-60" style="stroke-width:2px;stroke:black;stroke-linecap:round"/>
<g transform="translate(11.500000,-60.000000)">
<g transform="rotate(-15)">
<ellipse cx="0.000000" cy="-0.000000" rx="12.000000" ry="8.000000" style="stroke-width:2px;stroke:black;fill:black"/>
</g>
</g>
</g>
<g transform="translate(449.000000,-193.500000)">
<text x="0.000000" y="-0.000000" dx="0.000000" dy="-0.000000" style="font-size:24px;font-weight:bold">E</text></g>
<g transform="translate(483.000000,-59.500000)">
<line x1="-6" y1="-60" x2="29" y2="-60" style="stroke-width:2px;stroke:black"/>
</g>
<g transform="translate(483.000000,-76.500000)">
<line x1="-6" y1="-60" x2="29" y2="-60" style="stroke-width:2px;stroke:black"/>
</g>
<g transform="translate(483.000000,-93.500000)">
<line x1="-6" y1="-60" x2="29" y2="-60" style="stroke-width:2px;stroke:black"/>
</g>
<g transform="translate(495.000000,-106.000000)">
<text x="0.000000" y="-0.000000" dx="0.000000" dy="-0.000000" >3</text></g>
<g transform="translate(483.000000,-102.000000)">
<line x1="0" y1="-0" x2="0" y2="-60" style="stroke-width:2px;stroke:black;stroke-linecap:round"/>
<g transform="translate(11.500000,-60.000000)">
<g transform="rotate(-15)">
<ellipse cx="0.000000" cy="-0.000000" rx="12.000000" ry="8.000000" style="stroke-width:2px;stroke:black;fill:black"/>
</g>
</g>
</g>
<g transform="translate(491.000000,-202.000000)">
<text x="0.000000" y="-0.000000" dx="0.000000" dy="-0.000000" style="font-size:24px;font-weight:bold">F</text></g>
<g transform="translate(525.000000,-59.500000)">
<line x1="-6" y1="-60" x2="29" y2="-60" style="stroke-width:2px;stroke:black"/>
</g>
<g transform="translate(525.000000,-76.500000)">
<line x1="-6" y1="-60" x2="29" y2="-60" style="stroke-width:2px;stroke:black"/>
</g>
<g transform="translate(525.000000,-93.500000)">
<line x1="-6" y1="-60" x2="29" y2="-60" style="stroke-width:2px;stroke:black"/>
</g>
<g transform="translate(525.000000,-110.500000)">
<line x1="-6" y1="-60" x2="29" y2="-60" style="stroke-width:2px;stroke:black"/>
</g>
<g transform="translate(537.000000,-106.000000)">
<text x="0.000000" y="-0.000000" dx="0.000000" dy="-0.000000" >4</text></g>
<g transform="translate(525.000000,-110.500000)">
<line x1="0" y1="-0" x2="0" y2="-60" style="stroke-width:2px;stroke:black;stroke-linecap:round"/>
<g transform="translate(11.500000,-60.000000)">
<g transform="rotate(-15)">
<ellipse cx="0.000000" cy="-0.000000" rx="12.000000" ry="8.000000" style="stroke-width:2px;stroke:black;fill:black"/>
</g>
</g>
</g>
<g transform="translate(533.000000,-210.500000)">
<text x="0.000000" y="-0.000000" dx="0.000000" dy="-0.000000" style="font-size:24px;font-weight:bold">G</text></g>
<g transform="translate(-0.000000,0.000000)">
<line x1="0" y1="-60" x2="0" y2="-120" style="stroke-width:2px;stroke:black;stroke-linecap:round"/>
<g transform="translate(-11.500000,-60.000000)">
<g transform="rotate(-15)">
<ellipse cx="0.000000" cy="-0.000000" rx="12.000000" ry="8.000000" style="stroke-width:2px;stroke:black;fill:black"/>
</g>
</g>
</g>
<g transform="translate(-18.000000,-16.000000)">
<text x="0.000000" y="-0.000000" dx="0.000000" dy="-0.000000" style="font-size:24px;font-weight:bold">A</text></g>
<g transform="translate(-42.000000,8.500000)">
<line x1="0" y1="-60" x2="0" y2="-120" style="stroke-width:2px;stroke:black;stroke-linecap:round"/>
<g transform="translate(-11.500000,-60.000000)">
<g transform="rotate(-15)">
<ellipse cx="0.000000" cy="-0.000000" rx="12.000000" ry="8.000000" style="stroke-width:2px;stroke:black;fill:black"/>
</g>
</g>
</g>
<g transform="translate(-60.000000,-7.500000)">
<text x="0.000000" y="-0.000000" dx="0.000000" dy="-0.000000" style="font-size:24px;font-weight:bold">G</text></g>
<g transform="translate(-84.000000,17.000000)">
<line x1="0" y1="-60" x2="0" y2="-120" style="stroke-width:2px;stroke:black;stroke-linecap:round"/>
<g transform="translate(-11.500000,-60.000000)">
<g transform="rotate(-15)">
<ellipse cx="0.000000" cy="-0.000000" rx="12.000000" ry="8.000000" style="stroke-width:2px;stroke:black;fill:black"/>
</g>
</g>
</g>
<g transform="translate(-102.000000,1.000000)">
<text x="0.000000" y="-0.000000" dx="0.000000" dy="-0.000000" style="font-size:24px;font-weight:bold">F</text></g>
<g transform="translate(-126.000000,25.500000)">
<line x1="0" y1="-60" x2="0" y2="-120" style="stroke-width:2px;stroke:black;stroke-linecap:round"/>
<g transform="translate(-11.500000,-60.000000)">
<g transform="rotate(-15)">
<ellipse cx="0.000000" cy="-0.000000" rx="12.000000" ry="8.000000" style="stroke-width:2px;stroke:black;fill:black"/>
</g>
</g>
</g>
<g transform="translate(-144.000000,9.500000)">
<text x="0.000000" y="-0.000000" dx="0.000000" dy="-0.000000" style="font-size:24px;font-weight:bold">E</text></g>
<g transform="translate(-168.000000,34.000000)">
<line x1="0" y1="-60" x2="0" y2="-120" style="stroke-width:2px;stroke:black;stroke-linecap:round"/>
<g transform="translate(-11.500000,-60.000000)">
<g transform="rotate(-15)">
<ellipse cx="0.000000" cy="-0.000000" rx="12.000000" ry="8.000000" style="stroke-width:2px;stroke:black;fill:black"/>
</g>
</g>
</g>
<g transform="translate(-186.000000,18.000000)">
<text x="0.000000" y="-0.000000" dx="0.000000" dy="-0.000000" style="font-size:24px;font-weight:bold">D</text></g>
<g transform="translate(-210.000000,42.500000)">
<line x1="-29" y1="-60" x2="6" y2="-60" style="stroke-width:2px;stroke:black"/>
</g>
<g transform="translate(-210.000000,42.500000)">
<line x1="0" y1="-60" x2="0" y2="-120" style="stroke-width:2px;stroke:black;stroke-linecap:round"/>
<g transform="translate(-11.500000,-60.000000)">
<g transform="rotate(-15)">
<ellipse cx="0.000000" cy="-0.000000" rx="12.000000" ry="8.000000" style="stroke-width:2px;stroke:black;fill:black"/>
</g>
</g>
</g>
<g transform="translate(-228.000000,26.500000)">
<text x="0.000000" y="-0.000000" dx="0.000000" dy="-0.000000" style="font-size:24px;font-weight:bold">C</text></g>
<g transform="translate(-252.000000,42.500000)">
<line x1="-29" y1="-60" x2="6" y2="-60" style="stroke-width:2px;stroke:black"/>
</g>
<g transform="translate(-252.000000,51.000000)">
<line x1="0" y1="-60" x2="0" y2="-120" style="stroke-width:2px;stroke:black;stroke-linecap:round"/>
<g transform="translate(-11.500000,-60.000000)">
<g transform="rotate(-15)">
<ellipse cx="0.000000" cy="-0.000000" rx="12.000000" ry="8.000000" style="stroke-width:2px;stroke:black;fill:black"/>
</g>
</g>
</g>
<g transform="translate(-270.000000,35.000000)">
<text x="0.000000" y="-0.000000" dx="0.000000" dy="-0.000000" style="font-size:24px;font-weight:bold">B</text></g>
<g transform="translate(-294.000000,42.500000)">
<line x1="-29" y1="-60" x2="6" y2="-60" style="stroke-width:2px;stroke:black"/>
</g>
<g transform="translate(-294.000000,59.500000)">
<line x1="-29" y1="-60" x2="6" y2="-60" style="stroke-width:2px;stroke:black"/>
</g>
<g transform="translate(-310.000000,-21.000000)">
<text x="0.000000" y="-0.000000" dx="0.000000" dy="-0.000000" >2</text></g>
<g transform="translate(-294.000000,59.500000)">
<line x1="0" y1="-60" x2="0" y2="-120" style="stroke-width:2px;stroke:black;stroke-linecap:round"/>
<g transform="translate(-11.500000,-60.000000)">
<g transform="rotate(-15)">
<ellipse cx="0.000000" cy="-0.000000" rx="12.000000" ry="8.000000" style="stroke-width:2px;stroke:black;fill:black"/>
</g>
</g>
</g>
<g transform="translate(-312.000000,43.500000)">
<text x="0.000000" y="-0.000000" dx="0.000000" dy="-0.000000" style="font-size:24px;font-weight:bold">A</text></g>
<g transform="translate(-336.000000,42.500000)">
<line x1="-29" y1="-60" x2="6" y2="-60" style="stroke-width:2px;stroke:black"/>
</g>
<g transform="translate(-336.000000,59.500000)">
<line x1="-29" y1="-60" x2="6" y2="-60" style="stroke-width:2px;stroke:black"/>
</g>
<g transform="translate(-352.000000,-21.000000)">
<text x="0.000000" y="-0.000000" dx="0.000000" dy="-0.000000" >2</text></g>
<g transform="translate(-336.000000,68.000000)">
<line x1="0" y1="-60" x2="0" y2="-120" style="stroke-width:2px;stroke:black;stroke-linecap:round"/>
<g transform="translate(-11.500000,-60.000000)">
<g transform="rotate(-15)">
<ellipse cx="0.000000" cy="-0.000000" rx="12.000000" ry="8.000000" style="stroke-width:2px;stroke:black;fill:black"/>
</g>
</g>
</g>
<g transform="translate(-354.000000,52.000000)">
<text x="0.000000" y="-0.000000" dx="0.000000" dy="-0.000000" style="font-size:24px;font-weight:bold">G</text></g>
<g transform="translate(-378.000000,42.500000)">
<line x1="-29" y1="-60" x2="6" y2="-60" style="stroke-width:2px;stroke:black"/>
</g>
<g transform="translate(-378.000000,59.500000)">
<line x1="-29" y1="-60" x2="6" y2="-60" style="stroke-width:2px;stroke:black"/>
</g>
<g transform="translate(-378.000000,76.500000)">
<line x1="-29" y1="-60" x2="6" y2="-60" style="stroke-width:2px;stroke:black"/>
</g>
<g transform="translate(-394.000000,-21.000000)">
<text x="0.000000" y="-0.000000" dx="0.000000" dy="-0.000000" >3</text></g>
<g transform="translate(-378.000000,76.500000)">
<line x1="0" y1="-60" x2="0" y2="-120" style="stroke-width:2px;stroke:black;stroke-linecap:round"/>
<g transform="translate(-11.500000,-60.000000)">
<g transform="rotate(-15)">
<ellipse cx="0.000000" cy="-0.000000" rx="12.000000" ry="8.000000" style="stroke-width:2px;stroke:black;fill:black"/>
</g>
</g>
</g>
<g transform="translate(-396.000000,60.500000)">
<text x="0.000000" y="-0.000000" dx="0.000000" dy="-0.000000" style="font-size:24px;font-weight:bold">F</text></g>
<g transform="translate(-420.000000,42.500000)">
<line x1="-29" y1="-60" x2="6" y2="-60" style="stroke-width:2px;stroke:black"/>
</g>
<g transform="translate(-420.000000,59.500000)">
<line x1="-29" y1="-60" x2="6" y2="-60" style="stroke-width:2px;stroke:black"/>
</g>
<g transform="translate(-420.000000,76.500000)">
<line x1="-29" y1="-60" x2="6" y2="-60" style="stroke-width:2px;stroke:black"/>
</g>
<g transform="translate(-436.000000,-21.000000)">
<text x="0.000000" y="-0.000000" dx="0.000000" dy="-0.000000" >3</text></g>
<g transform="translate(-420.000000,85.000000)">
<line x1="0" y1="-60" x2="0" y2="-120" style="stroke-width:2px;stroke:black;stroke-linecap:round"/>
<g transform="translate(-11.500000,-60.000000)">
<g transform="rotate(-15)">
<ellipse cx="0.000000" cy="-0.000000" rx="12.000000" ry="8.000000" style="stroke-width:2px;stroke:black;fill:black"/>
</g>
</g>
</g>
<g transform="translate(-438.000000,69.000000)">
<text x="0.000000" y="-0.000000" dx="0.000000" dy="-0.000000" style="font-size:24px;font-weight:bold">E</text></g>
<g transform="translate(-462.000000,42.500000)">
<line x1="-29" y1="-60" x2="6" y2="-60" style="stroke-width:2px;stroke:black"/>
</g>
<g transform="translate(-462.000000,59.500000)">
<line x1="-29" y1="-60" x2="6" y2="-60" style="stroke-width:2px;stroke:black"/>
</g>
<g transform="translate(-462.000000,76.500000)">
<line x1="-29" y1="-60" x2="6" y2="-60" style="stroke-width:2px;stroke:black"/>
</g>
<g transform="translate(-462.000000,93.500000)">
<line x1="-29" y1="-60" x2="6" y2="-60" style="stroke-width:2px;stroke:black"/>
</g>
<g transform="translate(-478.000000,-21.000000)">
<text x="0.000000" y="-0.000000" dx="0.000000" dy="-0.000000" >4</text></g>
<g transform="translate(-462.000000,93.500000)">
<line x1="0" y1="-60" x2="0" y2="-120" style="stroke-width:2px;stroke:black;stroke-linecap:round"/>
<g transform="translate(-11.500000,-60.000000)">
<g transform="rotate(-15)">
<ellipse cx="0.000000" cy="-0.000000" rx="12.000000" ry="8.000000" style="stroke-width:2px;stroke:black;fill:black"/>
</g>
</g>
</g>
<g transform="translate(-480.000000,77.500000)">
<text x="0.000000" y="-0.000000" dx="0.000000" dy="-0.000000" style="font-size:24px;font-weight:bold">D</text></g>
<g transform="translate(-504.000000,42.500000)">
<line x1="-29" y1="-60" x2="6" y2="-60" style="stroke-width:2px;stroke:black"/>
</g>
<g transform="translate(-504.000000,59.500000)">
<line x1="-29" y1="-60" x2="6" y2="-60" style="stroke-width:2px;stroke:black"/>
</g>
<g transform="translate(-504.000000,76.500000)">
<line x1="-29" y1="-60" x2="6" y2="-60" style="stroke-width:2px;stroke:black"/>
</g>
<g transform="translate(-504.000000,93.500000)">
<line x1="-29" y1="-60" x2="6" y2="-60" style="stroke-width:2px;stroke:black"/>
</g>
<g transform="translate(-520.000000,-21.000000)">
<text x="0.000000" y="-0.000000" dx="0.000000" dy="-0.000000" >4</text></g>
<g transform="translate(-504.000000,102.000000)">
<line x1="0" y1="-60" x2="0" y2="-120" style="stroke-width:2px;stroke:black;stroke-linecap:round"/>
<g transform="translate(-11.500000,-60.000000)">
<g transform="rotate(-15)">
<ellipse cx="0.000000" cy="-0.000000" rx="12.000000" ry="8.000000" style="stroke-width:2px;stroke:black;fill:black"/>
</g>
</g>
</g>
<g transform="translate(-522.000000,86.000000)">
<text x="0.000000" y="-0.000000" dx="0.000000" dy="-0.000000" style="font-size:24px;font-weight:bold">C</text></g>
<g transform="translate(-546.000000,42.500000)">
<line x1="-29" y1="-60" x2="6" y2="-60" style="stroke-width:2px;stroke:black"/>
</g>
<g transform="translate(-546.000000,59.500000)">
<line x1="-29" y1="-60" x2="6" y2="-60" style="stroke-width:2px;stroke:black"/>
</g>
<g transform="translate(-546.000000,76.500000)">
<line x1="-29" y1="-60" x2="6" y2="-60" style="stroke-width:2px;stroke:black"/>
</g>
<g transform="translate(-546.000000,93.500000)">
<line x1="-29" y1="-60" x2="6" y2="-60" style="stroke-width:2px;stroke:black"/>
</g>
<g transform="translate(-546.000000,110.500000)">
<line x1="-29" y1="-60" x2="6" y2="-60" style="stroke-width:2px;stroke:black"/>
</g>
<g transform="translate(-562.000000,-21.000000)">
<text x="0.000000" y="-0.000000" dx="0.000000" dy="-0.000000" >5</text></g>
<g transform="translate(-546.000000,110.500000)">
<line x1="0" y1="-60" x2="0" y2="-120" style="stroke-width:2px;stroke:black;stroke-linecap:round"/>
<g transform="translate(-11.500000,-60.000000)">
<g transform="rotate(-15)">
<ellipse cx="0.000000" cy="-0.000000" rx="12.000000" ry="8.000000" style="stroke-width:2px;stroke:black;fill:black"/>
</g>
</g>
</g>
<g transform="translate(-564.000000,94.500000)">
<text x="0.000000" y="-0.000000" dx="0.000000" dy="-0.000000" style="font-size:24px;font-weight:bold">B</text></g>
<g transform="translate(-588.000000,42.500000)">
<line x1="-29" y1="-60" x2="6" y2="-60" style="stroke-width:2px;stroke:black"/>
</g>
<g transform="translate(-588.000000,59.500000)">
<line x1="-29" y1="-60" x2="6" y2="-60" style="stroke-width:2px;stroke:black"/>
</g>
<g transform="translate(-588.000000,76.500000)">
<line x1="-29" y1="-60" x2="6" y2="-60" style="stroke-width:2px;stroke:black"/>
</g>
<g transform="translate(-588.000000,93.500000)">
<line x1="-29" y1="-60" x2="6" y2="-60" style="stroke-width:2px;stroke:black"/>
</g>
<g transform="translate(-588.000000,110.500000)">
<line x1="-29" y1="-60" x2="6" y2="-60" style="stroke-width:2px;stroke:black"/>
</g>
<g transform="translate(-604.000000,-21.000000)">
<text x="0.000000" y="-0.000000" dx="0.000000" dy="-0.000000" >5</text></g>
<g transform="translate(-588.000000,119.000000)">
<line x1="0" y1="-60" x2="0" y2="-120" style="stroke-width:2px;stroke:black;stroke-linecap:round"/>
<g transform="translate(-11.500000,-60.000000)">
<g transform="rotate(-15)">
<ellipse cx="0.000000" cy="-0.000000" rx="12.000000" ry="8.000000" style="stroke-width:2px;stroke:black;fill:black"/>
</g>
</g>
</g>
<g transform="translate(-606.000000,103.000000)">
<text x="0.000000" y="-0.000000" dx="0.000000" dy="-0.000000" style="font-size:24px;font-weight:bold">A</text></g>
<image x="-685.000000px" y="-172.000000px" width="70.000000" height="220.000000" href="violin.png" style="stroke-width:1px;stroke:black"/></g>
<g transform="translate(700,480)">
<line x1="-700" y1="-34.5" x2="700" y2="-34.5" style="stroke-width:2px;stroke:black"/>
<line x1="-700" y1="-51.5" x2="700" y2="-51.5" style="stroke-width:2px;stroke:black"/>
<line x1="-700" y1="-68.5" x2="700" y2="-68.5" style="stroke-width:2px;stroke:black"/>
<line x1="-700" y1="-85.5" x2="700" y2="-85.5" style="stroke-width:2px;stroke:black"/>
<line x1="-700" y1="-102.5" x2="700" y2="-102.5" style="stroke-width:2px;stroke:black"/>
<g transform="translate(21.000000,-8.500000)">
<line x1="0" y1="-0" x2="0" y2="-60" style="stroke-width:2px;stroke:black;stroke-linecap:round"/>
<g transform="translate(11.500000,-60.000000)">
<g transform="rotate(-15)">
<ellipse cx="0.000000" cy="-0.000000" rx="12.000000" ry="8.000000" style="stroke-width:2px;stroke:black;fill:black"/>
</g>
</g>
</g>
<g transform="translate(29.000000,-108.500000)">
<text x="0.000000" y="-0.000000" dx="0.000000" dy="-0.000000" style="font-size:24px;font-weight:bold">D</text></g>
<g transform="translate(63.000000,-17.000000)">
<line x1="0" y1="-0" x2="0" y2="-60" style="stroke-width:2px;stroke:black;stroke-linecap:round"/>
<g transform="translate(11.500000,-60.000000)">
<g transform="rotate(-15)">
<ellipse cx="0.000000" cy="-0.000000" rx="12.000000" ry="8.000000" style="stroke-width:2px;stroke:black;fill:black"/>
</g>
</g>
</g>
<g transform="translate(71.000000,-117.000000)">
<text x="0.000000" y="-0.000000" dx="0.000000" dy="-0.000000" style="font-size:24px;font-weight:bold">E</text></g>
<g transform="translate(105.000000,-25.500000)">
<line x1="0" y1="-0" x2="0" y2="-60" style="stroke-width:2px;stroke:black;stroke-linecap:round"/>
<g transform="translate(11.500000,-60.000000)">
<g transform="rotate(-15)">
<ellipse cx="0.000000" cy="-0.000000" rx="12.000000" ry="8.000000" style="stroke-width:2px;stroke:black;fill:black"/>
</g>
</g>
</g>
<g transform="translate(113.000000,-125.500000)">
<text x="0.000000" y="-0.000000" dx="0.000000" dy="-0.000000" style="font-size:24px;font-weight:bold">F</text></g>
<g transform="translate(147.000000,-34.000000)">
<line x1="0" y1="-0" x2="0" y2="-60" style="stroke-width:2px;stroke:black;stroke-linecap:round"/>
<g transform="translate(11.500000,-60.000000)">
<g transform="rotate(-15)">
<ellipse cx="0.000000" cy="-0.000000" rx="12.000000" ry="8.000000" style="stroke-width:2px;stroke:black;fill:black"/>
</g>
</g>
</g>
<g transform="translate(155.000000,-134.000000)">
<text x="0.000000" y="-0.000000" dx="0.000000" dy="-0.000000" style="font-size:24px;font-weight:bold">G</text></g>
<g transform="translate(189.000000,-42.500000)">
<line x1="0" y1="-0" x2="0" y2="-60" style="stroke-width:2px;stroke:black;stroke-linecap:round"/>
<g transform="translate(11.500000,-60.000000)">
<g transform="rotate(-15)">
<ellipse cx="0.000000" cy="-0.000000" rx="12.000000" ry="8.000000" style="stroke-width:2px;stroke:black;fill:black"/>
</g>
</g>
</g>
<g transform="translate(197.000000,-142.500000)">
<text x="0.000000" y="-0.000000" dx="0.000000" dy="-0.000000" style="font-size:24px;font-weight:bold">A</text></g>
<g transform="translate(231.000000,-51.000000)">
<line x1="0" y1="-0" x2="0" y2="-60" style="stroke-width:2px;stroke:black;stroke-linecap:round"/>
<g transform="translate(11.500000,-60.000000)">
<g transform="rotate(-15)">
<ellipse cx="0.000000" cy="-0.000000" rx="12.000000" ry="8.000000" style="stroke-width:2px;stroke:black;fill:black"/>
</g>
</g>
</g>
<g transform="translate(239.000000,-151.000000)">
<text x="0.000000" y="-0.000000" dx="0.000000" dy="-0.000000" style="font-size:24px;font-weight:bold">B</text></g>
<g transform="translate(273.000000,-59.500000)">
<line x1="-6" y1="-60" x2="29" y2="-60" style="stroke-width:2px;stroke:black"/>
</g>
<g transform="translate(273.000000,-59.500000)">
<line x1="0" y1="-0" x2="0" y2="-60" style="stroke-width:2px;stroke:black;stroke-linecap:round"/>
<g transform="translate(11.500000,-60.000000)">
<g transform="rotate(-15)">
<ellipse cx="0.000000" cy="-0.000000" rx="12.000000" ry="8.000000" style="stroke-width:2px;stroke:black;fill:black"/>
</g>
</g>
</g>
<g transform="translate(281.000000,-159.500000)">
<text x="0.000000" y="-0.000000" dx="0.000000" dy="-0.000000" style="font-size:24px;font-weight:bold">C</text></g>
<g transform="translate(315.000000,-59.500000)">
<line x1="-6" y1="-60" x2="29" y2="-60" style="stroke-width:2px;stroke:black"/>
</g>
<g transform="translate(315.000000,-68.000000)">
<line x1="0" y1="-0" x2="0" y2="-60" style="stroke-width:2px;stroke:black;stroke-linecap:round"/>
<g transform="translate(11.500000,-60.000000)">
<g transform="rotate(-15)">
<ellipse cx="0.000000" cy="-0.000000" rx="12.000000" ry="8.000000" style="stroke-width:2px;stroke:black;fill:black"/>
</g>
</g>
</g>
<g transform="translate(323.000000,-168.000000)">
<text x="0.000000" y="-0.000000" dx="0.000000" dy="-0.000000" style="font-size:24px;font-weight:bold">D</text></g>
<g transform="translate(357.000000,-59.500000)">
<line x1="-6" y1="-60" x2="29" y2="-60" style="stroke-width:2px;stroke:black"/>
</g>
<g transform="translate(357.000000,-76.500000)">
<line x1="-6" y1="-60" x2="29" y2="-60" style="stroke-width:2px;stroke:black"/>
</g>
<g transform="translate(369.000000,-106.000000)">
<text x="0.000000" y="-0.000000" dx="0.000000" dy="-0.000000" >2</text></g>
<g transform="translate(357.000000,-76.500000)">
<line x1="0" y1="-0" x2="0" y2="-60" style="stroke-width:2px;stroke:black;stroke-linecap:round"/>
<g transform="translate(11.500000,-60.000000)">
<g transform="rotate(-15)">
<ellipse cx="0.000000" cy="-0.000000" rx="12.000000" ry="8.000000" style="stroke-width:2px;stroke:black;fill:black"/>
</g>
</g>
</g>
<g transform="translate(365.000000,-176.500000)">
<text x="0.000000" y="-0.000000" dx="0.000000" dy="-0.000000" style="font-size:24px;font-weight:bold">E</text></g>
<g transform="translate(399.000000,-59.500000)">
<line x1="-6" y1="-60" x2="29" y2="-60" style="stroke-width:2px;stroke:black"/>
</g>
<g transform="translate(399.000000,-76.500000)">
<line x1="-6" y1="-60" x2="29" y2="-60" style="stroke-width:2px;stroke:black"/>
</g>
<g transform="translate(411.000000,-106.000000)">
<text x="0.000000" y="-0.000000" dx="0.000000" dy="-0.000000" >2</text></g>
<g transform="translate(399.000000,-85.000000)">
<line x1="0" y1="-0" x2="0" y2="-60" style="stroke-width:2px;stroke:black;stroke-linecap:round"/>
<g transform="translate(11.500000,-60.000000)">
<g transform="rotate(-15)">
<ellipse cx="0.000000" cy="-0.000000" rx="12.000000" ry="8.000000" style="stroke-width:2px;stroke:black;fill:black"/>
</g>
</g>
</g>
<g transform="translate(407.000000,-185.000000)">
<text x="0.000000" y="-0.000000" dx="0.000000" dy="-0.000000" style="font-size:24px;font-weight:bold">F</text></g>
<g transform="translate(441.000000,-59.500000)">
<line x1="-6" y1="-60" x2="29" y2="-60" style="stroke-width:2px;stroke:black"/>
</g>
<g transform="translate(441.000000,-76.500000)">
<line x1="-6" y1="-60" x2="29" y2="-60" style="stroke-width:2px;stroke:black"/>
</g>
<g transform="translate(441.000000,-93.500000)">
<line x1="-6" y1="-60" x2="29" y2="-60" style="stroke-width:2px;stroke:black"/>
</g>
<g transform="translate(453.000000,-106.000000)">
<text x="0.000000" y="-0.000000" dx="0.000000" dy="-0.000000" >3</text></g>
<g transform="translate(441.000000,-93.500000)">
<line x1="0" y1="-0" x2="0" y2="-60" style="stroke-width:2px;stroke:black;stroke-linecap:round"/>
<g transform="translate(11.500000,-60.000000)">
<g transform="rotate(-15)">
<ellipse cx="0.000000" cy="-0.000000" rx="12.000000" ry="8.000000" style="stroke-width:2px;stroke:black;fill:black"/>
</g>
</g>
</g>
<g transform="translate(449.000000,-193.500000)">
<text x="0.000000" y="-0.000000" dx="0.000000" dy="-0.000000" style="font-size:24px;font-weight:bold">G</text></g>
<g transform="translate(483.000000,-59.500000)">
<line x1="-6" y1="-60" x2="29" y2="-60" style="stroke-width:2px;stroke:black"/>
</g>
<g transform="translate(483.000000,-76.500000)">
<line x1="-6" y1="-60" x2="29" y2="-60" style="stroke-width:2px;stroke:black"/>
</g>
<g transform="translate(483.000000,-93.500000)">
<line x1="-6" y1="-60" x2="29" y2="-60" style="stroke-width:2px;stroke:black"/>
</g>
<g transform="translate(495.000000,-106.000000)">
<text x="0.000000" y="-0.000000" dx="0.000000" dy="-0.000000" >3</text></g>
<g transform="translate(483.000000,-102.000000)">
<line x1="0" y1="-0" x2="0" y2="-60" style="stroke-width:2px;stroke:black;stroke-linecap:round"/>
<g transform="translate(11.500000,-60.000000)">
<g transform="rotate(-15)">
<ellipse cx="0.000000" cy="-0.000000" rx="12.000000" ry="8.000000" style="stroke-width:2px;stroke:black;fill:black"/>
</g>
</g>
</g>
<g transform="translate(491.000000,-202.000000)">
<text x="0.000000" y="-0.000000" dx="0.000000" dy="-0.000000" style="font-size:24px;font-weight:bold">A</text></g>
<g transform="translate(525.000000,-59.500000)">
<line x1="-6" y1="-60" x2="29" y2="-60" style="stroke-width:2px;stroke:black"/>
</g>
<g transform="translate(525.000000,-76.500000)">
<line x1="-6" y1="-60" x2="29" y2="-60" style="stroke-width:2px;stroke:black"/>
</g>
<g transform="translate(525.000000,-93.500000)">
<line x1="-6" y1="-60" x2="29" y2="-60" style="stroke-width:2px;stroke:black"/>
</g>
<g transform="translate(525.000000,-110.500000)">
<line x1="-6" y1="-60" x2="29" y2="-60" style="stroke-width:2px;stroke:black"/>
</g>
<g transform="translate(537.000000,-106.000000)">
<text x="0.000000" y="-0.000000" dx="0.000000" dy="-0.000000" >4</text></g>
<g transform="translate(525.000000,-110.500000)">
<line x1="0" y1="-0" x2="0" y2="-60" style="stroke-width:2px;stroke:black;stroke-linecap:round"/>
<g transform="translate(11.500000,-60.000000)">
<g transform="rotate(-15)">
<ellipse cx="0.000000" cy="-0.000000" rx="12.000000" ry="8.000000" style="stroke-width:2px;stroke:black;fill:black"/>
</g>
</g>
</g>
<g transform="translate(533.000000,-210.500000)">
<text x="0.000000" y="-0.000000" dx="0.000000" dy="-0.000000" style="font-size:24px;font-weight:bold">B</text></g>
<g transform="translate(-0.000000,0.000000)">
<line x1="0" y1="-60" x2="0" y2="-120" style="stroke-width:2px;stroke:black;stroke-linecap:round"/>
<g transform="translate(-11.500000,-60.000000)">
<g transform="rotate(-15)">
<ellipse cx="0.000000" cy="-0.000000" rx="12.000000" ry="8.000000" style="stroke-width:2px;stroke:black;fill:black"/>
</g>
</g>
</g>
<g transform="translate(-18.000000,-16.000000)">
<text x="0.000000" y="-0.000000" dx="0.000000" dy="-0.000000" style="font-size:24px;font-weight:bold">C</text></g>
<g transform="translate(-42.000000,8.500000)">
<line x1="0" y1="-60" x2="0" y2="-120" style="stroke-width:2px;stroke:black;stroke-linecap:round"/>
<g transform="translate(-11.500000,-60.000000)">
<g transform="rotate(-15)">
<ellipse cx="0.000000" cy="-0.000000" rx="12.000000" ry="8.000000" style="stroke-width:2px;stroke:black;fill:black"/>
</g>
</g>
</g>
<g transform="translate(-60.000000,-7.500000)">
<text x="0.000000" y="-0.000000" dx="0.000000" dy="-0.000000" style="font-size:24px;font-weight:bold">B</text></g>
<g transform="translate(-84.000000,17.000000)">
<line x1="0" y1="-60" x2="0" y2="-120" style="stroke-width:2px;stroke:black;stroke-linecap:round"/>
<g transform="translate(-11.500000,-60.000000)">
<g transform="rotate(-15)">
<ellipse cx="0.000000" cy="-0.000000" rx="12.000000" ry="8.000000" style="stroke-width:2px;stroke:black;fill:black"/>
</g>
</g>
</g>
<g transform="translate(-102.000000,1.000000)">
<text x="0.000000" y="-0.000000" dx="0.000000" dy="-0.000000" style="font-size:24px;font-weight:bold">A</text></g>
<g transform="translate(-126.000000,25.500000)">
<line x1="0" y1="-60" x2="0" y2="-120" style="stroke-width:2px;stroke:black;stroke-linecap:round"/>
<g transform="translate(-11.500000,-60.000000)">
<g transform="rotate(-15)">
<ellipse cx="0.000000" cy="-0.000000" rx="12.000000" ry="8.000000" style="stroke-width:2px;stroke:black;fill:black"/>
</g>
</g>
</g>
<g transform="translate(-144.000000,9.500000)">
<text x="0.000000" y="-0.000000" dx="0.000000" dy="-0.000000" style="font-size:24px;font-weight:bold">G</text></g>
<g transform="translate(-168.000000,34.000000)">
<line x1="0" y1="-60" x2="0" y2="-120" style="stroke-width:2px;stroke:black;stroke-linecap:round"/>
<g transform="translate(-11.500000,-60.000000)">
<g transform="rotate(-15)">
<ellipse cx="0.000000" cy="-0.000000" rx="12.000000" ry="8.000000" style="stroke-width:2px;stroke:black;fill:black"/>
</g>
</g>
</g>
<g transform="translate(-186.000000,18.000000)">
<text x="0.000000" y="-0.000000" dx="0.000000" dy="-0.000000" style="font-size:24px;font-weight:bold">F</text></g>
<g transform="translate(-210.000000,42.500000)">
<line x1="-29" y1="-60" x2="6" y2="-60" style="stroke-width:2px;stroke:black"/>
</g>
<g transform="translate(-210.000000,42.500000)">
<line x1="0" y1="-60" x2="0" y2="-120" style="stroke-width:2px;stroke:black;stroke-linecap:round"/>
<g transform="translate(-11.500000,-60.000000)">
<g transform="rotate(-15)">
<ellipse cx="0.000000" cy="-0.000000" rx="12.000000" ry="8.000000" style="stroke-width:2px;stroke:black;fill:black"/>
</g>
</g>
</g>
<g transform="translate(-228.000000,26.500000)">
<text x="0.000000" y="-0.000000" dx="0.000000" dy="-0.000000" style="font-size:24px;font-weight:bold">E</text></g>
<g transform="translate(-252.000000,42.500000)">
<line x1="-29" y1="-60" x2="6" y2="-60" style="stroke-width:2px;stroke:black"/>
</g>
<g transform="translate(-252.000000,51.000000)">
<line x1="0" y1="-60" x2="0" y2="-120" style="stroke-width:2px;stroke:black;stroke-linecap:round"/>
<g transform="translate(-11.500000,-60.000000)">
<g transform="rotate(-15)">
<ellipse cx="0.000000" cy="-0.000000" rx="12.000000" ry="8.000000" style="stroke-width:2px;stroke:black;fill:black"/>
</g>
</g>
</g>
<g transform="translate(-270.000000,35.000000)">
<text x="0.000000" y="-0.000000" dx="0.000000" dy="-0.000000" style="font-size:24px;font-weight:bold">D</text></g>
<g transform="translate(-294.000000,42.500000)">
<line x1="-29" y1="-60" x2="6" y2="-60" style="stroke-width:2px;stroke:black"/>
</g>
<g transform="translate(-294.000000,59.500000)">
<line x1="-29" y1="-60" x2="6" y2="-60" style="stroke-width:2px;stroke:black"/>
</g>
<g transform="translate(-310.000000,-21.000000)">
<text x="0.000000" y="-0.000000" dx="0.000000" dy="-0.000000" >2</text></g>
<g transform="translate(-294.000000,59.500000)">
<line x1="0" y1="-60" x2="0" y2="-120" style="stroke-width:2px;stroke:black;stroke-linecap:round"/>
<g transform="translate(-11.500000,-60.000000)">
<g transform="rotate(-15)">
<ellipse cx="0.000000" cy="-0.000000" rx="12.000000" ry="8.000000" style="stroke-width:2px;stroke:black;fill:black"/>
</g>
</g>
</g>
<g transform="translate(-312.000000,43.500000)">
<text x="0.000000" y="-0.000000" dx="0.000000" dy="-0.000000" style="font-size:24px;font-weight:bold">C</text></g>
<g transform="translate(-336.000000,42.500000)">
<line x1="-29" y1="-60" x2="6" y2="-60" style="stroke-width:2px;stroke:black"/>
</g>
<g transform="translate(-336.000000,59.500000)">
<line x1="-29" y1="-60" x2="6" y2="-60" style="stroke-width:2px;stroke:black"/>
</g>
<g transform="translate(-352.000000,-21.000000)">
<text x="0.000000" y="-0.000000" dx="0.000000" dy="-0.000000" >2</text></g>
<g transform="translate(-336.000000,68.000000)">
<line x1="0" y1="-60" x2="0" y2="-120" style="stroke-width:2px;stroke:black;stroke-linecap:round"/>
<g transform="translate(-11.500000,-60.000000)">
<g transform="rotate(-15)">
<ellipse cx="0.000000" cy="-0.000000" rx="12.000000" ry="8.000000" style="stroke-width:2px;stroke:black;fill:black"/>
</g>
</g>
</g>
<g transform="translate(-354.000000,52.000000)">
<text x="0.000000" y="-0.000000" dx="0.000000" dy="-0.000000" style="font-size:24px;font-weight:bold">B</text></g>
<g transform="translate(-378.000000,42.500000)">
<line x1="-29" y1="-60" x2="6" y2="-60" style="stroke-width:2px;stroke:black"/>
</g>
<g transform="translate(-378.000000,59.500000)">
<line x1="-29" y1="-60" x2="6" y2="-60" style="stroke-width:2px;stroke:black"/>
</g>
<g transform="translate(-378.000000,76.500000)">
<line x1="-29" y1="-60" x2="6" y2="-60" style="stroke-width:2px;stroke:black"/>
</g>
<g transform="translate(-394.000000,-21.000000)">
<text x="0.000000" y="-0.000000" dx="0.000000" dy="-0.000000" >3</text></g>
<g transform="translate(-378.000000,76.500000)">
<line x1="0" y1="-60" x2="0" y2="-120" style="stroke-width:2px;stroke:black;stroke-linecap:round"/>
<g transform="translate(-11.500000,-60.000000)">
<g transform="rotate(-15)">
<ellipse cx="0.000000" cy="-0.000000" rx="12.000000" ry="8.000000" style="stroke-width:2px;stroke:black;fill:black"/>
</g>
</g>
</g>
<g transform="translate(-396.000000,60.500000)">
<text x="0.000000" y="-0.000000" dx="0.000000" dy="-0.000000" style="font-size:24px;font-weight:bold">A</text></g>
<g transform="translate(-420.000000,42.500000)">
<line x1="-29" y1="-60" x2="6" y2="-60" style="stroke-width:2px;stroke:black"/>
</g>
<g transform="translate(-420.000000,59.500000)">
<line x1="-29" y1="-60" x2="6" y2="-60" style="stroke-width:2px;stroke:black"/>
</g>
<g transform="translate(-420.000000,76.500000)">
<line x1="-29" y1="-60" x2="6" y2="-60" style="stroke-width:2px;stroke:black"/>
</g>
<g transform="translate(-436.000000,-21.000000)">
<text x="0.000000" y="-0.000000" dx="0.000000" dy="-0.000000" >3</text></g>
<g transform="translate(-420.000000,85.000000)">
<line x1="0" y1="-60" x2="0" y2="-120" style="stroke-width:2px;stroke:black;stroke-linecap:round"/>
<g transform="translate(-11.500000,-60.000000)">
<g transform="rotate(-15)">
<ellipse cx="0.000000" cy="-0.000000" rx="12.000000" ry="8.000000" style="stroke-width:2px;stroke:black;fill:black"/>
</g>
</g>
</g>
<g transform="translate(-438.000000,69.000000)">
<text x="0.000000" y="-0.000000" dx="0.000000" dy="-0.000000" style="font-size:24px;font-weight:bold">G</text></g>
<g transform="translate(-462.000000,42.500000)">
<line x1="-29" y1="-60" x2="6" y2="-60" style="stroke-width:2px;stroke:black"/>
</g>
<g transform="translate(-462.000000,59.500000)">
<line x1="-29" y1="-60" x2="6" y2="-60" style="stroke-width:2px;stroke:black"/>
</g>
<g transform="translate(-462.000000,76.500000)">
<line x1="-29" y1="-60" x2="6" y2="-60" style="stroke-width:2px;stroke:black"/>
</g>
<g transform="translate(-462.000000,93.500000)">
<line x1="-29" y1="-60" x2="6" y2="-60" style="stroke-width:2px;stroke:black"/>
</g>
<g transform="translate(-478.000000,-21.000000)">
<text x="0.000000" y="-0.000000" dx="0.000000" dy="-0.000000" >4</text></g>
<g transform="translate(-462.000000,93.500000)">
<line x1="0" y1="-60" x2="0" y2="-120" style="stroke-width:2px;stroke:black;stroke-linecap:round"/>
<g transform="translate(-11.500000,-60.000000)">
<g transform="rotate(-15)">
<ellipse cx="0.000000" cy="-0.000000" rx="12.000000" ry="8.000000" style="stroke-width:2px;stroke:black;fill:black"/>
</g>
</g>
</g>
<g transform="translate(-480.000000,77.500000)">
<text x="0.000000" y="-0.000000" dx="0.000000" dy="-0.000000" style="font-size:24px;font-weight:bold">F</text></g>
<g transform="translate(-504.000000,42.500000)">
<line x1="-29" y1="-60" x2="6" y2="-60" style="stroke-width:2px;stroke:black"/>
</g>
<g transform="translate(-504.000000,59.500000)">
<line x1="-29" y1="-60" x2="6" y2="-60" style="stroke-width:2px;stroke:black"/>
</g>
<g transform="translate(-504.000000,76.500000)">
<line x1="-29" y1="-60" x2="6" y2="-60" style="stroke-width:2px;stroke:black"/>
</g>
<g transform="translate(-504.000000,93.500000)">
<line x1="-29" y1="-60" x2="6" y2="-60" style="stroke-width:2px;stroke:black"/>
</g>
<g transform="translate(-520.000000,-21.000000)">
<text x="0.000000" y="-0.000000" dx="0.000000" dy="-0.000000" >4</text></g>
<g transform="translate(-504.000000,102.000000)">
<line x1="0" y1="-60" x2="0" y2="-120" style="stroke-width:2px;stroke:black;stroke-linecap:round"/>
<g transform="translate(-11.500000,-60.000000)">
<g transform="rotate(-15)">
<ellipse cx="0.000000" cy="-0.000000" rx="12.000000" ry="8.000000" style="stroke-width:2px;stroke:black;fill:black"/>
</g>
</g>
</g>
<g transform="translate(-522.000000,86.000000)">
<text x="0.000000" y="-0.000000" dx="0.000000" dy="-0.000000" style="font-size:24px;font-weight:bold">E</text></g>
<g transform="translate(-546.000000,42.500000)">
<line x1="-29" y1="-60" x2="6" y2="-60" style="stroke-width:2px;stroke:black"/>
</g>
<g transform="translate(-546.000000,59.500000)">
<line x1="-29" y1="-60" x2="6" y2="-60" style="stroke-width:2px;stroke:black"/>
</g>
<g transform="translate(-546.000000,76.500000)">
<line x1="-29" y1="-60" x2="6" y2="-60" style="stroke-width:2px;stroke:black"/>
</g>
<g transform="translate(-546.000000,93.500000)">
<line x1="-29" y1="-60" x2="6" y2="-60" style="stroke-width:2px;stroke:black"/>
</g>
<g transform="translate(-546.000000,110.500000)">
<line x1="-29" y1="-60" x2="6" y2="-60" style="stroke-width:2px;stroke:black"/>
</g>
<g transform="translate(-562.000000,-21.000000)">
<text x="0.000000" y="-0.000000" dx="0.000000" dy="-0.000000" >5</text></g>
<g transform="translate(-546.000000,110.500000)">
<line x1="0" y1="-60" x2="0" y2="-120" style="stroke-width:2px;stroke:black;stroke-linecap:round"/>
<g transform="translate(-11.500000,-60.000000)">
<g transform="rotate(-15)">
<ellipse cx="0.000000" cy="-0.000000" rx="12.000000" ry="8.000000" style="stroke-width:2px;stroke:black;fill:black"/>
</g>
</g>
</g>
<g transform="translate(-564.000000,94.500000)">
<text x="0.000000" y="-0.000000" dx="0.000000" dy="-0.000000" style="font-size:24px;font-weight:bold">D</text></g>
<g transform="translate(-588.000000,42.500000)">
<line x1="-29" y1="-60" x2="6" y2="-60" style="stroke-width:2px;stroke:black"/>
</g>
<g transform="translate(-588.000000,59.500000)">
<line x1="-29" y1="-60" x2="6" y2="-60" style="stroke-width:2px;stroke:black"/>
</g>
<g transform="translate(-588.000000,76.500000)">
<line x1="-29" y1="-60" x2="6" y2="-60" style="stroke-width:2px;stroke:black"/>
</g>
<g transform="translate(-588.000000,93.500000)">
<line x1="-29" y1="-60" x2="6" y2="-60" style="stroke-width:2px;stroke:black"/>
</g>
<g transform="translate(-588.000000,110.500000)">
<line x1="-29" y1="-60" x2="6" y2="-60" style="stroke-width:2px;stroke:black"/>
</g>
<g transform="translate(-604.000000,-21.000000)">
<text x="0.000000" y="-0.000000" dx="0.000000" dy="-0.000000" >5</text></g>
<g transform="translate(-588.000000,119.000000)">
<line x1="0" y1="-60" x2="0" y2="-120" style="stroke-width:2px;stroke:black;stroke-linecap:round"/>
<g transform="translate(-11.500000,-60.000000)">
<g transform="rotate(-15)">
<ellipse cx="0.000000" cy="-0.000000" rx="12.000000" ry="8.000000" style="stroke-width:2px;stroke:black;fill:black"/>
</g>
</g>
</g>
<g transform="translate(-606.000000,103.000000)">
<text x="0.000000" y="-0.000000" dx="0.000000" dy="-0.000000" style="font-size:24px;font-weight:bold">C</text></g>
<image x="-675.000000px" y="-100.000000px" width="50.000000" height="50.000000" href="bass.png" style="stroke-width:1px;stroke:black"/></g>
<g transform="translate(700,285)">
<line x1="-218" y1="-0" x2="290" y2="-0" style="stroke-width:1px;stroke:black;"/>
<circle cx="-218" cy="-0" r="3" style="stroke-width:2px;stroke:black;stroke-linecap:round"/>
<circle cx="290" cy="-0" r="3" style="stroke-width:2px;stroke:black;stroke-linecap:round"/>
</svg>
