<?xml version="1.0"?>
<!-- Generated by SVGo -->
<svg width="600" height="600"
     xmlns="http://www.w3.org/2000/svg"
     xmlns:xlink="http://www.w3.org/1999/xlink">
<title>Trapezium</title>
<g transform="translate(300,300)">
<g transform="scale(100)">
<line x1="-2.8145825622994254" y1="3" x2="-2.8145825622994254" y2="-3" style="stroke-width:0.01px;stroke:gray"/>
<line x1="-2.598076211353316" y1="3" x2="-2.598076211353316" y2="-3" style="stroke-width:0.01px;stroke:gray"/>
<line x1="-2.381569860407206" y1="3" x2="-2.381569860407206" y2="-3" style="stroke-width:0.01px;stroke:gray"/>
<line x1="-2.1650635094610964" y1="3" x2="-2.1650635094610964" y2="-3" style="stroke-width:0.01px;stroke:gray"/>
<line x1="-1.9485571585149868" y1="3" x2="-1.9485571585149868" y2="-3" style="stroke-width:0.01px;stroke:gray"/>
<line x1="-1.7320508075688772" y1="3" x2="-1.7320508075688772" y2="-3" style="stroke-width:0.01px;stroke:gray"/>
<line x1="-1.5155444566227676" y1="3" x2="-1.5155444566227676" y2="-3" style="stroke-width:0.01px;stroke:gray"/>
<line x1="-1.299038105676658" y1="3" x2="-1.299038105676658" y2="-3" style="stroke-width:0.01px;stroke:gray"/>
<line x1="-1.0825317547305482" y1="3" x2="-1.0825317547305482" y2="-3" style="stroke-width:0.01px;stroke:gray"/>
<line x1="-0.8660254037844386" y1="3" x2="-0.8660254037844386" y2="-3" style="stroke-width:0.01px;stroke:gray"/>
<line x1="-0.649519052838329" y1="3" x2="-0.649519052838329" y2="-3" style="stroke-width:0.01px;stroke:gray"/>
<line x1="-0.4330127018922193" y1="3" x2="-0.4330127018922193" y2="-3" style="stroke-width:0.01px;stroke:gray"/>
<line x1="-0.21650635094610965" y1="3" x2="-0.21650635094610965" y2="-3" style="stroke-width:0.01px;stroke:gray"/>
<line x1="0" y1="3" x2="0" y2="-3" style="stroke-width:0.01px;stroke:gray"/>
<line x1="0.21650635094610965" y1="3" x2="0.21650635094610965" y2="-3" style="stroke-width:0.01px;stroke:gray"/>
<line x1="0.4330127018922193" y1="3" x2="0.4330127018922193" y2="-3" style="stroke-width:0.01px;stroke:gray"/>
<line x1="0.649519052838329" y1="3" x2="0.649519052838329" y2="-3" style="stroke-width:0.01px;stroke:gray"/>
<line x1="0.8660254037844386" y1="3" x2="0.8660254037844386" y2="-3" style="stroke-width:0.01px;stroke:gray"/>
<line x1="1.0825317547305482" y1="3" x2="1.0825317547305482" y2="-3" style="stroke-width:0.01px;stroke:gray"/>
<line x1="1.299038105676658" y1="3" x2="1.299038105676658" y2="-3" style="stroke-width:0.01px;stroke:gray"/>
<line x1="1.5155444566227676" y1="3" x2="1.5155444566227676" y2="-3" style="stroke-width:0.01px;stroke:gray"/>
<line x1="1.7320508075688772" y1="3" x2="1.7320508075688772" y2="-3" style="stroke-width:0.01px;stroke:gray"/>
<line x1="1.9485571585149868" y1="3" x2="1.9485571585149868" y2="-3" style="stroke-width:0.01px;stroke:gray"/>
<line x1="2.1650635094610964" y1="3" x2="2.1650635094610964" y2="-3" style="stroke-width:0.01px;stroke:gray"/>
<line x1="2.381569860407206" y1="3" x2="2.381569860407206" y2="-3" style="stroke-width:0.01px;stroke:gray"/>
<line x1="2.598076211353316" y1="3" x2="2.598076211353316" y2="-3" style="stroke-width:0.01px;stroke:gray"/>
<line x1="2.8145825622994254" y1="3" x2="2.8145825622994254" y2="-3" style="stroke-width:0.01px;stroke:gray"/>
<line x1="-3" y1="2.598076211353316" x2="3" y2="2.598076211353316" style="stroke-width:0.01px;stroke:gray"/>
<line x1="-3" y1="2.1650635094610964" x2="3" y2="2.1650635094610964" style="stroke-width:0.01px;stroke:gray"/>
<line x1="-3" y1="1.7320508075688772" x2="3" y2="1.7320508075688772" style="stroke-width:0.01px;stroke:gray"/>
<line x1="-3" y1="1.299038105676658" x2="3" y2="1.299038105676658" style="stroke-width:0.01px;stroke:gray"/>
<line x1="-3" y1="0.8660254037844386" x2="3" y2="0.8660254037844386" style="stroke-width:0.01px;stroke:gray"/>
<line x1="-3" y1="0.4330127018922193" x2="3" y2="0.4330127018922193" style="stroke-width:0.01px;stroke:gray"/>
<line x1="-3" y1="-0" x2="3" y2="-0" style="stroke-width:0.01px;stroke:gray"/>
<line x1="-3" y1="-0.4330127018922193" x2="3" y2="-0.4330127018922193" style="stroke-width:0.01px;stroke:gray"/>
<line x1="-3" y1="-0.8660254037844386" x2="3" y2="-0.8660254037844386" style="stroke-width:0.01px;stroke:gray"/>
<line x1="-3" y1="-1.299038105676658" x2="3" y2="-1.299038105676658" style="stroke-width:0.01px;stroke:gray"/>
<line x1="-3" y1="-1.7320508075688772" x2="3" y2="-1.7320508075688772" style="stroke-width:0.01px;stroke:gray"/>
<line x1="-3" y1="-2.1650635094610964" x2="3" y2="-2.1650635094610964" style="stroke-width:0.01px;stroke:gray"/>
<line x1="-3" y1="-2.598076211353316" x2="3" y2="-2.598076211353316" style="stroke-width:0.01px;stroke:gray"/>
<line x1="0" y1="3" x2="0" y2="-3" style="stroke-width:0.01px;stroke:red"/>
<line x1="-3" y1="-0" x2="3" y2="-0" style="stroke-width:0.01px;stroke:red"/>
<polygon style="fill:9FEE00;stroke:9FEE00;stroke-width:0.01px" points="0,-0 0.25000000000000006,-0.4330127018922193 0.75,-0.4330127018922193 1,-0 " />
<g transform="translate(0.000000,-0.000000)">
<g transform="rotate(-120)">
<polygon style="fill:1240AB;stroke:1240AB;stroke-width:0.01px" points="0,-0 0.25000000000000006,-0.4330127018922193 0.75,-0.4330127018922193 1,-0 " />
</g>
</g>
<polygon style="fill:9FEE00;stroke:9FEE00;stroke-width:0.01px" points="0,-0 0.25000000000000006,-0.4330127018922193 0.75,-0.4330127018922193 1,-0 " />
<g transform="translate(0.000000,-0.000000)">
<g transform="rotate(-120)">
<polygon style="fill:1240AB;stroke:1240AB;stroke-width:0.01px" points="0,-0 0.25000000000000006,-0.4330127018922193 0.75,-0.4330127018922193 1,-0 " />
</g>
</g>
<g transform="translate(0.500000,0.866025)">
<g transform="rotate(-60)">
<polygon style="fill:9FEE00;stroke:9FEE00;stroke-width:0.01px" points="0,-0 0.25000000000000006,-0.4330127018922193 0.75,-0.4330127018922193 1,-0 " />
<g transform="translate(0.000000,-0.000000)">
<g transform="rotate(-120)">
<polygon style="fill:1240AB;stroke:1240AB;stroke-width:0.01px" points="0,-0 0.25000000000000006,-0.4330127018922193 0.75,-0.4330127018922193 1,-0 " />
</g>
</g>
</g>
</g>
<g transform="translate(0.500000,0.866025)">
<g transform="rotate(-120)">
<polygon style="fill:9FEE00;stroke:9FEE00;stroke-width:0.01px" points="0,-0 0.25000000000000006,-0.4330127018922193 0.75,-0.4330127018922193 1,-0 " />
<g transform="translate(0.000000,-0.000000)">
<g transform="rotate(-120)">
<polygon style="fill:1240AB;stroke:1240AB;stroke-width:0.01px" points="0,-0 0.25000000000000006,-0.4330127018922193 0.75,-0.4330127018922193 1,-0 " />
</g>
</g>
</g>
</g>
<g transform="translate(2.000000,-0.000000)">
<g transform="rotate(-180)">
<polygon style="fill:9FEE00;stroke:9FEE00;stroke-width:0.01px" points="0,-0 0.25000000000000006,-0.4330127018922193 0.75,-0.4330127018922193 1,-0 " />
<g transform="translate(0.000000,-0.000000)">
<g transform="rotate(-120)">
<polygon style="fill:1240AB;stroke:1240AB;stroke-width:0.01px" points="0,-0 0.25000000000000006,-0.4330127018922193 0.75,-0.4330127018922193 1,-0 " />
</g>
</g>
</g>
</g>
<g transform="translate(1.500000,-0.866025)">
<g transform="rotate(-240)">
<polygon style="fill:9FEE00;stroke:9FEE00;stroke-width:0.01px" points="0,-0 0.25000000000000006,-0.4330127018922193 0.75,-0.4330127018922193 1,-0 " />
<g transform="translate(0.000000,-0.000000)">
<g transform="rotate(-120)">
<polygon style="fill:1240AB;stroke:1240AB;stroke-width:0.01px" points="0,-0 0.25000000000000006,-0.4330127018922193 0.75,-0.4330127018922193 1,-0 " />
</g>
</g>
</g>
</g>
<g transform="translate(0.500000,-0.866025)">
<g transform="rotate(-300)">
<polygon style="fill:9FEE00;stroke:9FEE00;stroke-width:0.01px" points="0,-0 0.25000000000000006,-0.4330127018922193 0.75,-0.4330127018922193 1,-0 " />
<g transform="translate(0.000000,-0.000000)">
<g transform="rotate(-120)">
<polygon style="fill:1240AB;stroke:1240AB;stroke-width:0.01px" points="0,-0 0.25000000000000006,-0.4330127018922193 0.75,-0.4330127018922193 1,-0 " />
</g>
</g>
</g>
</g>
</g>
</g>
</svg>
