<?xml version="1.0"?>
<!-- Generated by SVGo -->
<svg width="600" height="600"
     xmlns="http://www.w3.org/2000/svg"
     xmlns:xlink="http://www.w3.org/1999/xlink">
<title>TripleTooth</title>
<g transform="translate(300,300)">
<g transform="scale(150)">
<g transform="translate(0.288675,-0.000000)">
<g transform="rotate(-90)">
<polygon style="stroke-width:0.01px;stroke:blue;fill:blue" points="0,-0 0.25000000000000006,-0.4330127018922193 0.75,-0.4330127018922193 1,-0 " />
</g>
</g>
<g transform="translate(-0.577350,-0.500000)">
<g transform="rotate(-30)">
<polygon style="stroke-width:0.01px;stroke:blue;fill:blue" points="0,-0 0.25000000000000006,-0.4330127018922193 0.75,-0.4330127018922193 1,-0 " />
</g>
</g>
<g transform="rotate(-120)">
<g transform="translate(0.288675,-0.000000)">
<g transform="rotate(-90)">
<polygon style="stroke-width:0.01px;stroke:blue;fill:blue" points="0,-0 0.25000000000000006,-0.4330127018922193 0.75,-0.4330127018922193 1,-0 " />
</g>
</g>
<g transform="translate(-0.577350,-0.500000)">
<g transform="rotate(-30)">
<polygon style="stroke-width:0.01px;stroke:blue;fill:blue" points="0,-0 0.25000000000000006,-0.4330127018922193 0.75,-0.4330127018922193 1,-0 " />
</g>
</g>
</g>
<g transform="rotate(-240)">
<g transform="translate(0.288675,-0.000000)">
<g transform="rotate(-90)">
<polygon style="stroke-width:0.01px;stroke:blue;fill:blue" points="0,-0 0.25000000000000006,-0.4330127018922193 0.75,-0.4330127018922193 1,-0 " />
</g>
</g>
<g transform="translate(-0.577350,-0.500000)">
<g transform="rotate(-30)">
<polygon style="stroke-width:0.01px;stroke:blue;fill:blue" points="0,-0 0.25000000000000006,-0.4330127018922193 0.75,-0.4330127018922193 1,-0 " />
</g>
</g>
</g>
<g transform="translate(-0.721688,2.000000)">
<g transform="rotate(60)">
<g transform="translate(0.288675,-0.000000)">
<g transform="rotate(-90)">
<polygon style="stroke-width:0.01px;stroke:blue;fill:blue" points="0,-0 0.25000000000000006,-0.4330127018922193 0.75,-0.4330127018922193 1,-0 " />
</g>
</g>
<g transform="translate(-0.577350,-0.500000)">
<g transform="rotate(-30)">
<polygon style="stroke-width:0.01px;stroke:blue;fill:blue" points="0,-0 0.25000000000000006,-0.4330127018922193 0.75,-0.4330127018922193 1,-0 " />
</g>
</g>
<g transform="rotate(-120)">
<g transform="translate(0.288675,-0.000000)">
<g transform="rotate(-90)">
<polygon style="stroke-width:0.01px;stroke:blue;fill:blue" points="0,-0 0.25000000000000006,-0.4330127018922193 0.75,-0.4330127018922193 1,-0 " />
</g>
</g>
<g transform="translate(-0.577350,-0.500000)">
<g transform="rotate(-30)">
<polygon style="stroke-width:0.01px;stroke:blue;fill:blue" points="0,-0 0.25000000000000006,-0.4330127018922193 0.75,-0.4330127018922193 1,-0 " />
</g>
</g>
</g>
<g transform="rotate(-240)">
<g transform="translate(0.288675,-0.000000)">
<g transform="rotate(-90)">
<polygon style="stroke-width:0.01px;stroke:blue;fill:blue" points="0,-0 0.25000000000000006,-0.4330127018922193 0.75,-0.4330127018922193 1,-0 " />
</g>
</g>
<g transform="translate(-0.577350,-0.500000)">
<g transform="rotate(-30)">
<polygon style="stroke-width:0.01px;stroke:blue;fill:blue" points="0,-0 0.25000000000000006,-0.4330127018922193 0.75,-0.4330127018922193 1,-0 " />
</g>
</g>
</g>
</g>
</g>
</g>
</g>
</svg>
