<?xml version="1.0"?>
<!-- Generated by SVGo -->
<svg width="800" height="600"
     xmlns="http://www.w3.org/2000/svg"
     xmlns:xlink="http://www.w3.org/1999/xlink">
<title>1_3</title>
<g transform="translate(400,300)">
<g transform="scale(0.5)">
<g transform="translate(0.000000,519.615242)">
<g transform="rotate(-60)">
<polygon style="stroke:red;fill:none" points="100,-173.20508075688775 0,-346.4101615137755 -400,-346.4101615137755 -500,-173.20508075688775 -100,-173.20508075688775 0,-0 " />
</g>
</g>
<g transform="translate(300.000000,-346.410162)">
<g transform="rotate(-120)">
<polygon style="stroke:red;fill:none" points="200,-346.4101615137755 600,-346.4101615137755 500,-173.20508075688775 300,-173.20508075688775 200,-0 0,-0 " />
</g>
</g>
<g transform="translate(-200.000000,-173.205081)">
<g transform="rotate(-60)">
<polygon style="stroke:red;fill:none" points="-100,-173.20508075688775 100,-173.20508075688775 200,-346.4101615137755 400,-346.4101615137755 500,-173.20508075688775 300,-173.20508075688775 200,-0 0,-0 " />
</g>
</g>
<g transform="translate(-200.000000,-173.205081)">
<g transform="rotate(60)">
<polygon style="stroke:red;fill:none" points="-200,-0 -500,519.6152422706632 -300,519.6152422706632 0,-0 " />
</g>
</g>
</g>
</g>
</svg>
