<?xml version="1.0"?>
<!-- Generated by SVGo -->
<svg width="800" height="600"
     xmlns="http://www.w3.org/2000/svg"
     xmlns:xlink="http://www.w3.org/1999/xlink">
<title>cover</title>
<g transform="translate(400,300)">
<g transform="scale(0.5)">
<g transform="translate(-500.000000,-173.205081)">
<polygon style="stroke:blue;fill:none" points="200,-346.4101615137755 600,-346.4101615137755 500,-173.20508075688775 300,-173.20508075688775 200,-0 0,-0 " />
</g>
<g transform="translate(-300.000000,-173.205081)">
<polygon style="stroke:blue;fill:none" points="100,-173.20508075688775 300,-173.20508075688775 400,-346.4101615137755 600,-0 0,-0 " />
</g>
<g transform="translate(100.000000,-519.615242)">
<polygon style="stroke:blue;fill:none" points="200,-0 500,519.6152422706632 300,519.6152422706632 0,-0 " />
</g>
<g transform="translate(-500.000000,173.205081)">
<polygon style="stroke:blue;fill:none" points="-100,-173.20508075688775 0,-346.4101615137755 400,-346.4101615137755 500,-173.20508075688775 100,-173.20508075688775 0,-0 " />
</g>
<g transform="translate(-100.000000,173.205081)">
<polygon style="stroke:blue;fill:none" points="-100,-173.20508075688775 100,-173.20508075688775 0,-346.4101615137755 400,-346.4101615137755 200,-0 0,-0 " />
</g>
<g transform="translate(400.000000,346.410162)">
<polygon style="stroke:blue;fill:none" points="-100,-173.20508075688775 -300,-173.20508075688775 -100,-519.6152422706632 0,-346.4101615137755 200,-346.4101615137755 0,-0 " />
</g>
<g transform="translate(-400.000000,346.410162)">
<polygon style="stroke:blue;fill:none" points="-100,-173.20508075688775 0,-346.4101615137755 200,-346.4101615137755 300,-173.20508075688775 200,-0 0,-0 " />
</g>
<g transform="translate(-300.000000,519.615242)">
<polygon style="stroke:blue;fill:none" points="-100,-173.20508075688775 100,-173.20508075688775 200,-346.4101615137755 400,-346.4101615137755 500,-173.20508075688775 300,-173.20508075688775 200,-0 0,-0 " />
</g>
<g transform="translate(-100.000000,519.615242)">
<polygon style="stroke:blue;fill:none" points="100,-173.20508075688775 300,-173.20508075688775 200,-346.4101615137755 400,-346.4101615137755 500,-173.20508075688775 400,-0 0,-0 " />
</g>
</g>
</g>
</svg>
