<?xml version="1.0"?>
<!-- Generated by SVGo -->
<svg width="1000" height="800"
     xmlns="http://www.w3.org/2000/svg"
     xmlns:xlink="http://www.w3.org/1999/xlink">
<title>Mozara</title>
<g transform="translate(500,400)">
<g transform="rotate(90)">
<g transform="scale(1)">
<polygon style="stroke-width:2px;fill:red;stroke:black" points="28.2842712474619,-28.284271247461906 18.2842712474619,-52.42640687119285 0,-60 -66.37522309215997,-32.506482389687505 -84.8528137423857,-50.98407303991324 -84.8528137423857,-24.852813742385706 -70.71067811865476,-10.710678118654752 0,-40 " />
<g transform="rotate(-90)">
<polygon style="stroke-width:2px;fill:red;stroke:black" points="28.2842712474619,-28.284271247461906 18.2842712474619,-52.42640687119285 0,-60 -66.37522309215997,-32.506482389687505 -84.8528137423857,-50.98407303991324 -84.8528137423857,-24.852813742385706 -70.71067811865476,-10.710678118654752 0,-40 " />
</g>
<g transform="rotate(-180)">
<polygon style="stroke-width:2px;fill:red;stroke:black" points="28.2842712474619,-28.284271247461906 18.2842712474619,-52.42640687119285 0,-60 -66.37522309215997,-32.506482389687505 -84.8528137423857,-50.98407303991324 -84.8528137423857,-24.852813742385706 -70.71067811865476,-10.710678118654752 0,-40 " />
</g>
<g transform="rotate(-270)">
<polygon style="stroke-width:2px;fill:red;stroke:black" points="28.2842712474619,-28.284271247461906 18.2842712474619,-52.42640687119285 0,-60 -66.37522309215997,-32.506482389687505 -84.8528137423857,-50.98407303991324 -84.8528137423857,-24.852813742385706 -70.71067811865476,-10.710678118654752 0,-40 " />
</g>
<polygon style="stroke-width:2px;fill:red;stroke:black" points="-84.8528137423857,-4.852813742385706 -84.8528137423857,-84.8528137423857 -103.33040439261144,-84.8528137423857 -103.33040439261144,-17.199145095083907 -120.71067811865476,-10 -96.5685424949238,-0 " />
<g transform="rotate(-90)">
<polygon style="stroke-width:2px;fill:red;stroke:black" points="-84.8528137423857,-4.852813742385706 -84.8528137423857,-84.8528137423857 -103.33040439261144,-84.8528137423857 -103.33040439261144,-17.199145095083907 -120.71067811865476,-10 -96.5685424949238,-0 " />
</g>
<g transform="rotate(-180)">
<polygon style="stroke-width:2px;fill:red;stroke:black" points="-84.8528137423857,-4.852813742385706 -84.8528137423857,-84.8528137423857 -103.33040439261144,-84.8528137423857 -103.33040439261144,-17.199145095083907 -120.71067811865476,-10 -96.5685424949238,-0 " />
</g>
<g transform="rotate(-270)">
<polygon style="stroke-width:2px;fill:red;stroke:black" points="-84.8528137423857,-4.852813742385706 -84.8528137423857,-84.8528137423857 -103.33040439261144,-84.8528137423857 -103.33040439261144,-17.199145095083907 -120.71067811865476,-10 -96.5685424949238,-0 " />
</g>
<polygon style="stroke-width:2px;fill:red;stroke:black" points="-84.8528137423857,24.852813742385706 -84.8528137423857,4.852813742385706 -120.71067811865476,-10 -120.71067811865476,10 -103.33040439261144,17.199145095083907 -103.33040439261144,43.33040439261144 " />
<g transform="rotate(-90)">
<polygon style="stroke-width:2px;fill:red;stroke:black" points="-84.8528137423857,24.852813742385706 -84.8528137423857,4.852813742385706 -120.71067811865476,-10 -120.71067811865476,10 -103.33040439261144,17.199145095083907 -103.33040439261144,43.33040439261144 " />
</g>
<g transform="rotate(-180)">
<polygon style="stroke-width:2px;fill:red;stroke:black" points="-84.8528137423857,24.852813742385706 -84.8528137423857,4.852813742385706 -120.71067811865476,-10 -120.71067811865476,10 -103.33040439261144,17.199145095083907 -103.33040439261144,43.33040439261144 " />
</g>
<g transform="rotate(-270)">
<polygon style="stroke-width:2px;fill:red;stroke:black" points="-84.8528137423857,24.852813742385706 -84.8528137423857,4.852813742385706 -120.71067811865476,-10 -120.71067811865476,10 -103.33040439261144,17.199145095083907 -103.33040439261144,43.33040439261144 " />
</g>
<polygon style="stroke-width:2px;fill:red;stroke:black" points="-42.42640687119285,42.42640687119285 -52.42640687119285,18.284271247461902 -70.71067811865476,10.710678118654752 -120.71067811865476,60.710678118654755 -107.645048469891,73.77630776741852 -66.37522309215997,32.5064823896875 " />
<g transform="rotate(-90)">
<polygon style="stroke-width:2px;fill:red;stroke:black" points="-42.42640687119285,42.42640687119285 -52.42640687119285,18.284271247461902 -70.71067811865476,10.710678118654752 -120.71067811865476,60.710678118654755 -107.645048469891,73.77630776741852 -66.37522309215997,32.5064823896875 " />
</g>
<g transform="rotate(-180)">
<polygon style="stroke-width:2px;fill:red;stroke:black" points="-42.42640687119285,42.42640687119285 -52.42640687119285,18.284271247461902 -70.71067811865476,10.710678118654752 -120.71067811865476,60.710678118654755 -107.645048469891,73.77630776741852 -66.37522309215997,32.5064823896875 " />
</g>
<g transform="rotate(-270)">
<polygon style="stroke-width:2px;fill:red;stroke:black" points="-42.42640687119285,42.42640687119285 -52.42640687119285,18.284271247461902 -70.71067811865476,10.710678118654752 -120.71067811865476,60.710678118654755 -107.645048469891,73.77630776741852 -66.37522309215997,32.5064823896875 " />
</g>
<polygon style="stroke-width:2px;fill:red;stroke:black" points="-103.33040439261144,-43.33040439261144 -103.33040439261144,-69.46166369013898 -120.71067811865476,-86.84193741618229 -120.71067811865476,-60.710678118654755 " />
<g transform="rotate(-90)">
<polygon style="stroke-width:2px;fill:red;stroke:black" points="-103.33040439261144,-43.33040439261144 -103.33040439261144,-69.46166369013898 -120.71067811865476,-86.84193741618229 -120.71067811865476,-60.710678118654755 " />
</g>
<g transform="rotate(-180)">
<polygon style="stroke-width:2px;fill:red;stroke:black" points="-103.33040439261144,-43.33040439261144 -103.33040439261144,-69.46166369013898 -120.71067811865476,-86.84193741618229 -120.71067811865476,-60.710678118654755 " />
</g>
<g transform="rotate(-270)">
<polygon style="stroke-width:2px;fill:red;stroke:black" points="-103.33040439261144,-43.33040439261144 -103.33040439261144,-69.46166369013898 -120.71067811865476,-86.84193741618229 -120.71067811865476,-60.710678118654755 " />
</g>
<polygon style="stroke-width:2px;fill:red;stroke:black" points="-111.0259794187348,-77.15723871626234 -103.33040439261144,-84.8528137423857 -50.98407303991324,-84.8528137423857 -69.46166369013898,-103.33040439261144 -104.22221114222562,-103.33040439261144 -120.71067811865476,-86.84193741618229 " />
<g transform="rotate(-90)">
<polygon style="stroke-width:2px;fill:red;stroke:black" points="-111.0259794187348,-77.15723871626234 -103.33040439261144,-84.8528137423857 -50.98407303991324,-84.8528137423857 -69.46166369013898,-103.33040439261144 -104.22221114222562,-103.33040439261144 -120.71067811865476,-86.84193741618229 " />
</g>
<g transform="rotate(-180)">
<polygon style="stroke-width:2px;fill:red;stroke:black" points="-111.0259794187348,-77.15723871626234 -103.33040439261144,-84.8528137423857 -50.98407303991324,-84.8528137423857 -69.46166369013898,-103.33040439261144 -104.22221114222562,-103.33040439261144 -120.71067811865476,-86.84193741618229 " />
</g>
<g transform="rotate(-270)">
<polygon style="stroke-width:2px;fill:red;stroke:black" points="-111.0259794187348,-77.15723871626234 -103.33040439261144,-84.8528137423857 -50.98407303991324,-84.8528137423857 -69.46166369013898,-103.33040439261144 -104.22221114222562,-103.33040439261144 -120.71067811865476,-86.84193741618229 " />
</g>
<polygon style="stroke-width:2px;fill:red;stroke:black" points="-103.33040439261144,-103.33040439261144 -84.8528137423857,-120.71067811865476 -60.710678118654755,-120.71067811865476 -78.3528137423857,-103.33040439261144 " />
<g transform="rotate(-90)">
<polygon style="stroke-width:2px;fill:red;stroke:black" points="-103.33040439261144,-103.33040439261144 -84.8528137423857,-120.71067811865476 -60.710678118654755,-120.71067811865476 -78.3528137423857,-103.33040439261144 " />
</g>
<g transform="rotate(-180)">
<polygon style="stroke-width:2px;fill:red;stroke:black" points="-103.33040439261144,-103.33040439261144 -84.8528137423857,-120.71067811865476 -60.710678118654755,-120.71067811865476 -78.3528137423857,-103.33040439261144 " />
</g>
<g transform="rotate(-270)">
<polygon style="stroke-width:2px;fill:red;stroke:black" points="-103.33040439261144,-103.33040439261144 -84.8528137423857,-120.71067811865476 -60.710678118654755,-120.71067811865476 -78.3528137423857,-103.33040439261144 " />
</g>
<g transform="translate(241.421356,-241.421356)">
<polygon style="stroke-width:2px;fill:red;stroke:black" points="28.2842712474619,-28.284271247461906 18.2842712474619,-52.42640687119285 0,-60 -66.37522309215997,-32.506482389687505 -84.8528137423857,-50.98407303991324 -84.8528137423857,-24.852813742385706 -70.71067811865476,-10.710678118654752 0,-40 " />
<g transform="rotate(-90)">
<polygon style="stroke-width:2px;fill:red;stroke:black" points="28.2842712474619,-28.284271247461906 18.2842712474619,-52.42640687119285 0,-60 -66.37522309215997,-32.506482389687505 -84.8528137423857,-50.98407303991324 -84.8528137423857,-24.852813742385706 -70.71067811865476,-10.710678118654752 0,-40 " />
</g>
<g transform="rotate(-180)">
<polygon style="stroke-width:2px;fill:red;stroke:black" points="28.2842712474619,-28.284271247461906 18.2842712474619,-52.42640687119285 0,-60 -66.37522309215997,-32.506482389687505 -84.8528137423857,-50.98407303991324 -84.8528137423857,-24.852813742385706 -70.71067811865476,-10.710678118654752 0,-40 " />
</g>
<g transform="rotate(-270)">
<polygon style="stroke-width:2px;fill:red;stroke:black" points="28.2842712474619,-28.284271247461906 18.2842712474619,-52.42640687119285 0,-60 -66.37522309215997,-32.506482389687505 -84.8528137423857,-50.98407303991324 -84.8528137423857,-24.852813742385706 -70.71067811865476,-10.710678118654752 0,-40 " />
</g>
<polygon style="stroke-width:2px;fill:red;stroke:black" points="-84.8528137423857,-4.852813742385706 -84.8528137423857,-84.8528137423857 -103.33040439261144,-84.8528137423857 -103.33040439261144,-17.199145095083907 -120.71067811865476,-10 -96.5685424949238,-0 " />
<g transform="rotate(-90)">
<polygon style="stroke-width:2px;fill:red;stroke:black" points="-84.8528137423857,-4.852813742385706 -84.8528137423857,-84.8528137423857 -103.33040439261144,-84.8528137423857 -103.33040439261144,-17.199145095083907 -120.71067811865476,-10 -96.5685424949238,-0 " />
</g>
<g transform="rotate(-180)">
<polygon style="stroke-width:2px;fill:red;stroke:black" points="-84.8528137423857,-4.852813742385706 -84.8528137423857,-84.8528137423857 -103.33040439261144,-84.8528137423857 -103.33040439261144,-17.199145095083907 -120.71067811865476,-10 -96.5685424949238,-0 " />
</g>
<g transform="rotate(-270)">
<polygon style="stroke-width:2px;fill:red;stroke:black" points="-84.8528137423857,-4.852813742385706 -84.8528137423857,-84.8528137423857 -103.33040439261144,-84.8528137423857 -103.33040439261144,-17.199145095083907 -120.71067811865476,-10 -96.5685424949238,-0 " />
</g>
<polygon style="stroke-width:2px;fill:red;stroke:black" points="-84.8528137423857,24.852813742385706 -84.8528137423857,4.852813742385706 -120.71067811865476,-10 -120.71067811865476,10 -103.33040439261144,17.199145095083907 -103.33040439261144,43.33040439261144 " />
<g transform="rotate(-90)">
<polygon style="stroke-width:2px;fill:red;stroke:black" points="-84.8528137423857,24.852813742385706 -84.8528137423857,4.852813742385706 -120.71067811865476,-10 -120.71067811865476,10 -103.33040439261144,17.199145095083907 -103.33040439261144,43.33040439261144 " />
</g>
<g transform="rotate(-180)">
<polygon style="stroke-width:2px;fill:red;stroke:black" points="-84.8528137423857,24.852813742385706 -84.8528137423857,4.852813742385706 -120.71067811865476,-10 -120.71067811865476,10 -103.33040439261144,17.199145095083907 -103.33040439261144,43.33040439261144 " />
</g>
<g transform="rotate(-270)">
<polygon style="stroke-width:2px;fill:red;stroke:black" points="-84.8528137423857,24.852813742385706 -84.8528137423857,4.852813742385706 -120.71067811865476,-10 -120.71067811865476,10 -103.33040439261144,17.199145095083907 -103.33040439261144,43.33040439261144 " />
</g>
<polygon style="stroke-width:2px;fill:red;stroke:black" points="-42.42640687119285,42.42640687119285 -52.42640687119285,18.284271247461902 -70.71067811865476,10.710678118654752 -120.71067811865476,60.710678118654755 -107.645048469891,73.77630776741852 -66.37522309215997,32.5064823896875 " />
<g transform="rotate(-90)">
<polygon style="stroke-width:2px;fill:red;stroke:black" points="-42.42640687119285,42.42640687119285 -52.42640687119285,18.284271247461902 -70.71067811865476,10.710678118654752 -120.71067811865476,60.710678118654755 -107.645048469891,73.77630776741852 -66.37522309215997,32.5064823896875 " />
</g>
<g transform="rotate(-180)">
<polygon style="stroke-width:2px;fill:red;stroke:black" points="-42.42640687119285,42.42640687119285 -52.42640687119285,18.284271247461902 -70.71067811865476,10.710678118654752 -120.71067811865476,60.710678118654755 -107.645048469891,73.77630776741852 -66.37522309215997,32.5064823896875 " />
</g>
<g transform="rotate(-270)">
<polygon style="stroke-width:2px;fill:red;stroke:black" points="-42.42640687119285,42.42640687119285 -52.42640687119285,18.284271247461902 -70.71067811865476,10.710678118654752 -120.71067811865476,60.710678118654755 -107.645048469891,73.77630776741852 -66.37522309215997,32.5064823896875 " />
</g>
<polygon style="stroke-width:2px;fill:red;stroke:black" points="-103.33040439261144,-43.33040439261144 -103.33040439261144,-69.46166369013898 -120.71067811865476,-86.84193741618229 -120.71067811865476,-60.710678118654755 " />
<g transform="rotate(-90)">
<polygon style="stroke-width:2px;fill:red;stroke:black" points="-103.33040439261144,-43.33040439261144 -103.33040439261144,-69.46166369013898 -120.71067811865476,-86.84193741618229 -120.71067811865476,-60.710678118654755 " />
</g>
<g transform="rotate(-180)">
<polygon style="stroke-width:2px;fill:red;stroke:black" points="-103.33040439261144,-43.33040439261144 -103.33040439261144,-69.46166369013898 -120.71067811865476,-86.84193741618229 -120.71067811865476,-60.710678118654755 " />
</g>
<g transform="rotate(-270)">
<polygon style="stroke-width:2px;fill:red;stroke:black" points="-103.33040439261144,-43.33040439261144 -103.33040439261144,-69.46166369013898 -120.71067811865476,-86.84193741618229 -120.71067811865476,-60.710678118654755 " />
</g>
<polygon style="stroke-width:2px;fill:red;stroke:black" points="-111.0259794187348,-77.15723871626234 -103.33040439261144,-84.8528137423857 -50.98407303991324,-84.8528137423857 -69.46166369013898,-103.33040439261144 -104.22221114222562,-103.33040439261144 -120.71067811865476,-86.84193741618229 " />
<g transform="rotate(-90)">
<polygon style="stroke-width:2px;fill:red;stroke:black" points="-111.0259794187348,-77.15723871626234 -103.33040439261144,-84.8528137423857 -50.98407303991324,-84.8528137423857 -69.46166369013898,-103.33040439261144 -104.22221114222562,-103.33040439261144 -120.71067811865476,-86.84193741618229 " />
</g>
<g transform="rotate(-180)">
<polygon style="stroke-width:2px;fill:red;stroke:black" points="-111.0259794187348,-77.15723871626234 -103.33040439261144,-84.8528137423857 -50.98407303991324,-84.8528137423857 -69.46166369013898,-103.33040439261144 -104.22221114222562,-103.33040439261144 -120.71067811865476,-86.84193741618229 " />
</g>
<g transform="rotate(-270)">
<polygon style="stroke-width:2px;fill:red;stroke:black" points="-111.0259794187348,-77.15723871626234 -103.33040439261144,-84.8528137423857 -50.98407303991324,-84.8528137423857 -69.46166369013898,-103.33040439261144 -104.22221114222562,-103.33040439261144 -120.71067811865476,-86.84193741618229 " />
</g>
<polygon style="stroke-width:2px;fill:red;stroke:black" points="-103.33040439261144,-103.33040439261144 -84.8528137423857,-120.71067811865476 -60.710678118654755,-120.71067811865476 -78.3528137423857,-103.33040439261144 " />
<g transform="rotate(-90)">
<polygon style="stroke-width:2px;fill:red;stroke:black" points="-103.33040439261144,-103.33040439261144 -84.8528137423857,-120.71067811865476 -60.710678118654755,-120.71067811865476 -78.3528137423857,-103.33040439261144 " />
</g>
<g transform="rotate(-180)">
<polygon style="stroke-width:2px;fill:red;stroke:black" points="-103.33040439261144,-103.33040439261144 -84.8528137423857,-120.71067811865476 -60.710678118654755,-120.71067811865476 -78.3528137423857,-103.33040439261144 " />
</g>
<g transform="rotate(-270)">
<polygon style="stroke-width:2px;fill:red;stroke:black" points="-103.33040439261144,-103.33040439261144 -84.8528137423857,-120.71067811865476 -60.710678118654755,-120.71067811865476 -78.3528137423857,-103.33040439261144 " />
</g>
</g>
<g transform="translate(0.000000,-241.421356)">
<polygon style="stroke-width:2px;fill:red;stroke:black" points="28.2842712474619,-28.284271247461906 18.2842712474619,-52.42640687119285 0,-60 -66.37522309215997,-32.506482389687505 -84.8528137423857,-50.98407303991324 -84.8528137423857,-24.852813742385706 -70.71067811865476,-10.710678118654752 0,-40 " />
<g transform="rotate(-90)">
<polygon style="stroke-width:2px;fill:red;stroke:black" points="28.2842712474619,-28.284271247461906 18.2842712474619,-52.42640687119285 0,-60 -66.37522309215997,-32.506482389687505 -84.8528137423857,-50.98407303991324 -84.8528137423857,-24.852813742385706 -70.71067811865476,-10.710678118654752 0,-40 " />
</g>
<g transform="rotate(-180)">
<polygon style="stroke-width:2px;fill:red;stroke:black" points="28.2842712474619,-28.284271247461906 18.2842712474619,-52.42640687119285 0,-60 -66.37522309215997,-32.506482389687505 -84.8528137423857,-50.98407303991324 -84.8528137423857,-24.852813742385706 -70.71067811865476,-10.710678118654752 0,-40 " />
</g>
<g transform="rotate(-270)">
<polygon style="stroke-width:2px;fill:red;stroke:black" points="28.2842712474619,-28.284271247461906 18.2842712474619,-52.42640687119285 0,-60 -66.37522309215997,-32.506482389687505 -84.8528137423857,-50.98407303991324 -84.8528137423857,-24.852813742385706 -70.71067811865476,-10.710678118654752 0,-40 " />
</g>
<polygon style="stroke-width:2px;fill:red;stroke:black" points="-84.8528137423857,-4.852813742385706 -84.8528137423857,-84.8528137423857 -103.33040439261144,-84.8528137423857 -103.33040439261144,-17.199145095083907 -120.71067811865476,-10 -96.5685424949238,-0 " />
<g transform="rotate(-90)">
<polygon style="stroke-width:2px;fill:red;stroke:black" points="-84.8528137423857,-4.852813742385706 -84.8528137423857,-84.8528137423857 -103.33040439261144,-84.8528137423857 -103.33040439261144,-17.199145095083907 -120.71067811865476,-10 -96.5685424949238,-0 " />
</g>
<g transform="rotate(-180)">
<polygon style="stroke-width:2px;fill:red;stroke:black" points="-84.8528137423857,-4.852813742385706 -84.8528137423857,-84.8528137423857 -103.33040439261144,-84.8528137423857 -103.33040439261144,-17.199145095083907 -120.71067811865476,-10 -96.5685424949238,-0 " />
</g>
<g transform="rotate(-270)">
<polygon style="stroke-width:2px;fill:red;stroke:black" points="-84.8528137423857,-4.852813742385706 -84.8528137423857,-84.8528137423857 -103.33040439261144,-84.8528137423857 -103.33040439261144,-17.199145095083907 -120.71067811865476,-10 -96.5685424949238,-0 " />
</g>
<polygon style="stroke-width:2px;fill:red;stroke:black" points="-84.8528137423857,24.852813742385706 -84.8528137423857,4.852813742385706 -120.71067811865476,-10 -120.71067811865476,10 -103.33040439261144,17.199145095083907 -103.33040439261144,43.33040439261144 " />
<g transform="rotate(-90)">
<polygon style="stroke-width:2px;fill:red;stroke:black" points="-84.8528137423857,24.852813742385706 -84.8528137423857,4.852813742385706 -120.71067811865476,-10 -120.71067811865476,10 -103.33040439261144,17.199145095083907 -103.33040439261144,43.33040439261144 " />
</g>
<g transform="rotate(-180)">
<polygon style="stroke-width:2px;fill:red;stroke:black" points="-84.8528137423857,24.852813742385706 -84.8528137423857,4.852813742385706 -120.71067811865476,-10 -120.71067811865476,10 -103.33040439261144,17.199145095083907 -103.33040439261144,43.33040439261144 " />
</g>
<g transform="rotate(-270)">
<polygon style="stroke-width:2px;fill:red;stroke:black" points="-84.8528137423857,24.852813742385706 -84.8528137423857,4.852813742385706 -120.71067811865476,-10 -120.71067811865476,10 -103.33040439261144,17.199145095083907 -103.33040439261144,43.33040439261144 " />
</g>
<polygon style="stroke-width:2px;fill:red;stroke:black" points="-42.42640687119285,42.42640687119285 -52.42640687119285,18.284271247461902 -70.71067811865476,10.710678118654752 -120.71067811865476,60.710678118654755 -107.645048469891,73.77630776741852 -66.37522309215997,32.5064823896875 " />
<g transform="rotate(-90)">
<polygon style="stroke-width:2px;fill:red;stroke:black" points="-42.42640687119285,42.42640687119285 -52.42640687119285,18.284271247461902 -70.71067811865476,10.710678118654752 -120.71067811865476,60.710678118654755 -107.645048469891,73.77630776741852 -66.37522309215997,32.5064823896875 " />
</g>
<g transform="rotate(-180)">
<polygon style="stroke-width:2px;fill:red;stroke:black" points="-42.42640687119285,42.42640687119285 -52.42640687119285,18.284271247461902 -70.71067811865476,10.710678118654752 -120.71067811865476,60.710678118654755 -107.645048469891,73.77630776741852 -66.37522309215997,32.5064823896875 " />
</g>
<g transform="rotate(-270)">
<polygon style="stroke-width:2px;fill:red;stroke:black" points="-42.42640687119285,42.42640687119285 -52.42640687119285,18.284271247461902 -70.71067811865476,10.710678118654752 -120.71067811865476,60.710678118654755 -107.645048469891,73.77630776741852 -66.37522309215997,32.5064823896875 " />
</g>
<polygon style="stroke-width:2px;fill:red;stroke:black" points="-103.33040439261144,-43.33040439261144 -103.33040439261144,-69.46166369013898 -120.71067811865476,-86.84193741618229 -120.71067811865476,-60.710678118654755 " />
<g transform="rotate(-90)">
<polygon style="stroke-width:2px;fill:red;stroke:black" points="-103.33040439261144,-43.33040439261144 -103.33040439261144,-69.46166369013898 -120.71067811865476,-86.84193741618229 -120.71067811865476,-60.710678118654755 " />
</g>
<g transform="rotate(-180)">
<polygon style="stroke-width:2px;fill:red;stroke:black" points="-103.33040439261144,-43.33040439261144 -103.33040439261144,-69.46166369013898 -120.71067811865476,-86.84193741618229 -120.71067811865476,-60.710678118654755 " />
</g>
<g transform="rotate(-270)">
<polygon style="stroke-width:2px;fill:red;stroke:black" points="-103.33040439261144,-43.33040439261144 -103.33040439261144,-69.46166369013898 -120.71067811865476,-86.84193741618229 -120.71067811865476,-60.710678118654755 " />
</g>
<polygon style="stroke-width:2px;fill:red;stroke:black" points="-111.0259794187348,-77.15723871626234 -103.33040439261144,-84.8528137423857 -50.98407303991324,-84.8528137423857 -69.46166369013898,-103.33040439261144 -104.22221114222562,-103.33040439261144 -120.71067811865476,-86.84193741618229 " />
<g transform="rotate(-90)">
<polygon style="stroke-width:2px;fill:red;stroke:black" points="-111.0259794187348,-77.15723871626234 -103.33040439261144,-84.8528137423857 -50.98407303991324,-84.8528137423857 -69.46166369013898,-103.33040439261144 -104.22221114222562,-103.33040439261144 -120.71067811865476,-86.84193741618229 " />
</g>
<g transform="rotate(-180)">
<polygon style="stroke-width:2px;fill:red;stroke:black" points="-111.0259794187348,-77.15723871626234 -103.33040439261144,-84.8528137423857 -50.98407303991324,-84.8528137423857 -69.46166369013898,-103.33040439261144 -104.22221114222562,-103.33040439261144 -120.71067811865476,-86.84193741618229 " />
</g>
<g transform="rotate(-270)">
<polygon style="stroke-width:2px;fill:red;stroke:black" points="-111.0259794187348,-77.15723871626234 -103.33040439261144,-84.8528137423857 -50.98407303991324,-84.8528137423857 -69.46166369013898,-103.33040439261144 -104.22221114222562,-103.33040439261144 -120.71067811865476,-86.84193741618229 " />
</g>
<polygon style="stroke-width:2px;fill:red;stroke:black" points="-103.33040439261144,-103.33040439261144 -84.8528137423857,-120.71067811865476 -60.710678118654755,-120.71067811865476 -78.3528137423857,-103.33040439261144 " />
<g transform="rotate(-90)">
<polygon style="stroke-width:2px;fill:red;stroke:black" points="-103.33040439261144,-103.33040439261144 -84.8528137423857,-120.71067811865476 -60.710678118654755,-120.71067811865476 -78.3528137423857,-103.33040439261144 " />
</g>
<g transform="rotate(-180)">
<polygon style="stroke-width:2px;fill:red;stroke:black" points="-103.33040439261144,-103.33040439261144 -84.8528137423857,-120.71067811865476 -60.710678118654755,-120.71067811865476 -78.3528137423857,-103.33040439261144 " />
</g>
<g transform="rotate(-270)">
<polygon style="stroke-width:2px;fill:red;stroke:black" points="-103.33040439261144,-103.33040439261144 -84.8528137423857,-120.71067811865476 -60.710678118654755,-120.71067811865476 -78.3528137423857,-103.33040439261144 " />
</g>
</g>
<g transform="translate(0.000000,241.421356)">
<polygon style="stroke-width:2px;fill:red;stroke:black" points="28.2842712474619,-28.284271247461906 18.2842712474619,-52.42640687119285 0,-60 -66.37522309215997,-32.506482389687505 -84.8528137423857,-50.98407303991324 -84.8528137423857,-24.852813742385706 -70.71067811865476,-10.710678118654752 0,-40 " />
<g transform="rotate(-90)">
<polygon style="stroke-width:2px;fill:red;stroke:black" points="28.2842712474619,-28.284271247461906 18.2842712474619,-52.42640687119285 0,-60 -66.37522309215997,-32.506482389687505 -84.8528137423857,-50.98407303991324 -84.8528137423857,-24.852813742385706 -70.71067811865476,-10.710678118654752 0,-40 " />
</g>
<g transform="rotate(-180)">
<polygon style="stroke-width:2px;fill:red;stroke:black" points="28.2842712474619,-28.284271247461906 18.2842712474619,-52.42640687119285 0,-60 -66.37522309215997,-32.506482389687505 -84.8528137423857,-50.98407303991324 -84.8528137423857,-24.852813742385706 -70.71067811865476,-10.710678118654752 0,-40 " />
</g>
<g transform="rotate(-270)">
<polygon style="stroke-width:2px;fill:red;stroke:black" points="28.2842712474619,-28.284271247461906 18.2842712474619,-52.42640687119285 0,-60 -66.37522309215997,-32.506482389687505 -84.8528137423857,-50.98407303991324 -84.8528137423857,-24.852813742385706 -70.71067811865476,-10.710678118654752 0,-40 " />
</g>
<polygon style="stroke-width:2px;fill:red;stroke:black" points="-84.8528137423857,-4.852813742385706 -84.8528137423857,-84.8528137423857 -103.33040439261144,-84.8528137423857 -103.33040439261144,-17.199145095083907 -120.71067811865476,-10 -96.5685424949238,-0 " />
<g transform="rotate(-90)">
<polygon style="stroke-width:2px;fill:red;stroke:black" points="-84.8528137423857,-4.852813742385706 -84.8528137423857,-84.8528137423857 -103.33040439261144,-84.8528137423857 -103.33040439261144,-17.199145095083907 -120.71067811865476,-10 -96.5685424949238,-0 " />
</g>
<g transform="rotate(-180)">
<polygon style="stroke-width:2px;fill:red;stroke:black" points="-84.8528137423857,-4.852813742385706 -84.8528137423857,-84.8528137423857 -103.33040439261144,-84.8528137423857 -103.33040439261144,-17.199145095083907 -120.71067811865476,-10 -96.5685424949238,-0 " />
</g>
<g transform="rotate(-270)">
<polygon style="stroke-width:2px;fill:red;stroke:black" points="-84.8528137423857,-4.852813742385706 -84.8528137423857,-84.8528137423857 -103.33040439261144,-84.8528137423857 -103.33040439261144,-17.199145095083907 -120.71067811865476,-10 -96.5685424949238,-0 " />
</g>
<polygon style="stroke-width:2px;fill:red;stroke:black" points="-84.8528137423857,24.852813742385706 -84.8528137423857,4.852813742385706 -120.71067811865476,-10 -120.71067811865476,10 -103.33040439261144,17.199145095083907 -103.33040439261144,43.33040439261144 " />
<g transform="rotate(-90)">
<polygon style="stroke-width:2px;fill:red;stroke:black" points="-84.8528137423857,24.852813742385706 -84.8528137423857,4.852813742385706 -120.71067811865476,-10 -120.71067811865476,10 -103.33040439261144,17.199145095083907 -103.33040439261144,43.33040439261144 " />
</g>
<g transform="rotate(-180)">
<polygon style="stroke-width:2px;fill:red;stroke:black" points="-84.8528137423857,24.852813742385706 -84.8528137423857,4.852813742385706 -120.71067811865476,-10 -120.71067811865476,10 -103.33040439261144,17.199145095083907 -103.33040439261144,43.33040439261144 " />
</g>
<g transform="rotate(-270)">
<polygon style="stroke-width:2px;fill:red;stroke:black" points="-84.8528137423857,24.852813742385706 -84.8528137423857,4.852813742385706 -120.71067811865476,-10 -120.71067811865476,10 -103.33040439261144,17.199145095083907 -103.33040439261144,43.33040439261144 " />
</g>
<polygon style="stroke-width:2px;fill:red;stroke:black" points="-42.42640687119285,42.42640687119285 -52.42640687119285,18.284271247461902 -70.71067811865476,10.710678118654752 -120.71067811865476,60.710678118654755 -107.645048469891,73.77630776741852 -66.37522309215997,32.5064823896875 " />
<g transform="rotate(-90)">
<polygon style="stroke-width:2px;fill:red;stroke:black" points="-42.42640687119285,42.42640687119285 -52.42640687119285,18.284271247461902 -70.71067811865476,10.710678118654752 -120.71067811865476,60.710678118654755 -107.645048469891,73.77630776741852 -66.37522309215997,32.5064823896875 " />
</g>
<g transform="rotate(-180)">
<polygon style="stroke-width:2px;fill:red;stroke:black" points="-42.42640687119285,42.42640687119285 -52.42640687119285,18.284271247461902 -70.71067811865476,10.710678118654752 -120.71067811865476,60.710678118654755 -107.645048469891,73.77630776741852 -66.37522309215997,32.5064823896875 " />
</g>
<g transform="rotate(-270)">
<polygon style="stroke-width:2px;fill:red;stroke:black" points="-42.42640687119285,42.42640687119285 -52.42640687119285,18.284271247461902 -70.71067811865476,10.710678118654752 -120.71067811865476,60.710678118654755 -107.645048469891,73.77630776741852 -66.37522309215997,32.5064823896875 " />
</g>
<polygon style="stroke-width:2px;fill:red;stroke:black" points="-103.33040439261144,-43.33040439261144 -103.33040439261144,-69.46166369013898 -120.71067811865476,-86.84193741618229 -120.71067811865476,-60.710678118654755 " />
<g transform="rotate(-90)">
<polygon style="stroke-width:2px;fill:red;stroke:black" points="-103.33040439261144,-43.33040439261144 -103.33040439261144,-69.46166369013898 -120.71067811865476,-86.84193741618229 -120.71067811865476,-60.710678118654755 " />
</g>
<g transform="rotate(-180)">
<polygon style="stroke-width:2px;fill:red;stroke:black" points="-103.33040439261144,-43.33040439261144 -103.33040439261144,-69.46166369013898 -120.71067811865476,-86.84193741618229 -120.71067811865476,-60.710678118654755 " />
</g>
<g transform="rotate(-270)">
<polygon style="stroke-width:2px;fill:red;stroke:black" points="-103.33040439261144,-43.33040439261144 -103.33040439261144,-69.46166369013898 -120.71067811865476,-86.84193741618229 -120.71067811865476,-60.710678118654755 " />
</g>
<polygon style="stroke-width:2px;fill:red;stroke:black" points="-111.0259794187348,-77.15723871626234 -103.33040439261144,-84.8528137423857 -50.98407303991324,-84.8528137423857 -69.46166369013898,-103.33040439261144 -104.22221114222562,-103.33040439261144 -120.71067811865476,-86.84193741618229 " />
<g transform="rotate(-90)">
<polygon style="stroke-width:2px;fill:red;stroke:black" points="-111.0259794187348,-77.15723871626234 -103.33040439261144,-84.8528137423857 -50.98407303991324,-84.8528137423857 -69.46166369013898,-103.33040439261144 -104.22221114222562,-103.33040439261144 -120.71067811865476,-86.84193741618229 " />
</g>
<g transform="rotate(-180)">
<polygon style="stroke-width:2px;fill:red;stroke:black" points="-111.0259794187348,-77.15723871626234 -103.33040439261144,-84.8528137423857 -50.98407303991324,-84.8528137423857 -69.46166369013898,-103.33040439261144 -104.22221114222562,-103.33040439261144 -120.71067811865476,-86.84193741618229 " />
</g>
<g transform="rotate(-270)">
<polygon style="stroke-width:2px;fill:red;stroke:black" points="-111.0259794187348,-77.15723871626234 -103.33040439261144,-84.8528137423857 -50.98407303991324,-84.8528137423857 -69.46166369013898,-103.33040439261144 -104.22221114222562,-103.33040439261144 -120.71067811865476,-86.84193741618229 " />
</g>
<polygon style="stroke-width:2px;fill:red;stroke:black" points="-103.33040439261144,-103.33040439261144 -84.8528137423857,-120.71067811865476 -60.710678118654755,-120.71067811865476 -78.3528137423857,-103.33040439261144 " />
<g transform="rotate(-90)">
<polygon style="stroke-width:2px;fill:red;stroke:black" points="-103.33040439261144,-103.33040439261144 -84.8528137423857,-120.71067811865476 -60.710678118654755,-120.71067811865476 -78.3528137423857,-103.33040439261144 " />
</g>
<g transform="rotate(-180)">
<polygon style="stroke-width:2px;fill:red;stroke:black" points="-103.33040439261144,-103.33040439261144 -84.8528137423857,-120.71067811865476 -60.710678118654755,-120.71067811865476 -78.3528137423857,-103.33040439261144 " />
</g>
<g transform="rotate(-270)">
<polygon style="stroke-width:2px;fill:red;stroke:black" points="-103.33040439261144,-103.33040439261144 -84.8528137423857,-120.71067811865476 -60.710678118654755,-120.71067811865476 -78.3528137423857,-103.33040439261144 " />
</g>
</g>
<g transform="translate(241.421356,241.421356)">
<polygon style="stroke-width:2px;fill:red;stroke:black" points="28.2842712474619,-28.284271247461906 18.2842712474619,-52.42640687119285 0,-60 -66.37522309215997,-32.506482389687505 -84.8528137423857,-50.98407303991324 -84.8528137423857,-24.852813742385706 -70.71067811865476,-10.710678118654752 0,-40 " />
<g transform="rotate(-90)">
<polygon style="stroke-width:2px;fill:red;stroke:black" points="28.2842712474619,-28.284271247461906 18.2842712474619,-52.42640687119285 0,-60 -66.37522309215997,-32.506482389687505 -84.8528137423857,-50.98407303991324 -84.8528137423857,-24.852813742385706 -70.71067811865476,-10.710678118654752 0,-40 " />
</g>
<g transform="rotate(-180)">
<polygon style="stroke-width:2px;fill:red;stroke:black" points="28.2842712474619,-28.284271247461906 18.2842712474619,-52.42640687119285 0,-60 -66.37522309215997,-32.506482389687505 -84.8528137423857,-50.98407303991324 -84.8528137423857,-24.852813742385706 -70.71067811865476,-10.710678118654752 0,-40 " />
</g>
<g transform="rotate(-270)">
<polygon style="stroke-width:2px;fill:red;stroke:black" points="28.2842712474619,-28.284271247461906 18.2842712474619,-52.42640687119285 0,-60 -66.37522309215997,-32.506482389687505 -84.8528137423857,-50.98407303991324 -84.8528137423857,-24.852813742385706 -70.71067811865476,-10.710678118654752 0,-40 " />
</g>
<polygon style="stroke-width:2px;fill:red;stroke:black" points="-84.8528137423857,-4.852813742385706 -84.8528137423857,-84.8528137423857 -103.33040439261144,-84.8528137423857 -103.33040439261144,-17.199145095083907 -120.71067811865476,-10 -96.5685424949238,-0 " />
<g transform="rotate(-90)">
<polygon style="stroke-width:2px;fill:red;stroke:black" points="-84.8528137423857,-4.852813742385706 -84.8528137423857,-84.8528137423857 -103.33040439261144,-84.8528137423857 -103.33040439261144,-17.199145095083907 -120.71067811865476,-10 -96.5685424949238,-0 " />
</g>
<g transform="rotate(-180)">
<polygon style="stroke-width:2px;fill:red;stroke:black" points="-84.8528137423857,-4.852813742385706 -84.8528137423857,-84.8528137423857 -103.33040439261144,-84.8528137423857 -103.33040439261144,-17.199145095083907 -120.71067811865476,-10 -96.5685424949238,-0 " />
</g>
<g transform="rotate(-270)">
<polygon style="stroke-width:2px;fill:red;stroke:black" points="-84.8528137423857,-4.852813742385706 -84.8528137423857,-84.8528137423857 -103.33040439261144,-84.8528137423857 -103.33040439261144,-17.199145095083907 -120.71067811865476,-10 -96.5685424949238,-0 " />
</g>
<polygon style="stroke-width:2px;fill:red;stroke:black" points="-84.8528137423857,24.852813742385706 -84.8528137423857,4.852813742385706 -120.71067811865476,-10 -120.71067811865476,10 -103.33040439261144,17.199145095083907 -103.33040439261144,43.33040439261144 " />
<g transform="rotate(-90)">
<polygon style="stroke-width:2px;fill:red;stroke:black" points="-84.8528137423857,24.852813742385706 -84.8528137423857,4.852813742385706 -120.71067811865476,-10 -120.71067811865476,10 -103.33040439261144,17.199145095083907 -103.33040439261144,43.33040439261144 " />
</g>
<g transform="rotate(-180)">
<polygon style="stroke-width:2px;fill:red;stroke:black" points="-84.8528137423857,24.852813742385706 -84.8528137423857,4.852813742385706 -120.71067811865476,-10 -120.71067811865476,10 -103.33040439261144,17.199145095083907 -103.33040439261144,43.33040439261144 " />
</g>
<g transform="rotate(-270)">
<polygon style="stroke-width:2px;fill:red;stroke:black" points="-84.8528137423857,24.852813742385706 -84.8528137423857,4.852813742385706 -120.71067811865476,-10 -120.71067811865476,10 -103.33040439261144,17.199145095083907 -103.33040439261144,43.33040439261144 " />
</g>
<polygon style="stroke-width:2px;fill:red;stroke:black" points="-42.42640687119285,42.42640687119285 -52.42640687119285,18.284271247461902 -70.71067811865476,10.710678118654752 -120.71067811865476,60.710678118654755 -107.645048469891,73.77630776741852 -66.37522309215997,32.5064823896875 " />
<g transform="rotate(-90)">
<polygon style="stroke-width:2px;fill:red;stroke:black" points="-42.42640687119285,42.42640687119285 -52.42640687119285,18.284271247461902 -70.71067811865476,10.710678118654752 -120.71067811865476,60.710678118654755 -107.645048469891,73.77630776741852 -66.37522309215997,32.5064823896875 " />
</g>
<g transform="rotate(-180)">
<polygon style="stroke-width:2px;fill:red;stroke:black" points="-42.42640687119285,42.42640687119285 -52.42640687119285,18.284271247461902 -70.71067811865476,10.710678118654752 -120.71067811865476,60.710678118654755 -107.645048469891,73.77630776741852 -66.37522309215997,32.5064823896875 " />
</g>
<g transform="rotate(-270)">
<polygon style="stroke-width:2px;fill:red;stroke:black" points="-42.42640687119285,42.42640687119285 -52.42640687119285,18.284271247461902 -70.71067811865476,10.710678118654752 -120.71067811865476,60.710678118654755 -107.645048469891,73.77630776741852 -66.37522309215997,32.5064823896875 " />
</g>
<polygon style="stroke-width:2px;fill:red;stroke:black" points="-103.33040439261144,-43.33040439261144 -103.33040439261144,-69.46166369013898 -120.71067811865476,-86.84193741618229 -120.71067811865476,-60.710678118654755 " />
<g transform="rotate(-90)">
<polygon style="stroke-width:2px;fill:red;stroke:black" points="-103.33040439261144,-43.33040439261144 -103.33040439261144,-69.46166369013898 -120.71067811865476,-86.84193741618229 -120.71067811865476,-60.710678118654755 " />
</g>
<g transform="rotate(-180)">
<polygon style="stroke-width:2px;fill:red;stroke:black" points="-103.33040439261144,-43.33040439261144 -103.33040439261144,-69.46166369013898 -120.71067811865476,-86.84193741618229 -120.71067811865476,-60.710678118654755 " />
</g>
<g transform="rotate(-270)">
<polygon style="stroke-width:2px;fill:red;stroke:black" points="-103.33040439261144,-43.33040439261144 -103.33040439261144,-69.46166369013898 -120.71067811865476,-86.84193741618229 -120.71067811865476,-60.710678118654755 " />
</g>
<polygon style="stroke-width:2px;fill:red;stroke:black" points="-111.0259794187348,-77.15723871626234 -103.33040439261144,-84.8528137423857 -50.98407303991324,-84.8528137423857 -69.46166369013898,-103.33040439261144 -104.22221114222562,-103.33040439261144 -120.71067811865476,-86.84193741618229 " />
<g transform="rotate(-90)">
<polygon style="stroke-width:2px;fill:red;stroke:black" points="-111.0259794187348,-77.15723871626234 -103.33040439261144,-84.8528137423857 -50.98407303991324,-84.8528137423857 -69.46166369013898,-103.33040439261144 -104.22221114222562,-103.33040439261144 -120.71067811865476,-86.84193741618229 " />
</g>
<g transform="rotate(-180)">
<polygon style="stroke-width:2px;fill:red;stroke:black" points="-111.0259794187348,-77.15723871626234 -103.33040439261144,-84.8528137423857 -50.98407303991324,-84.8528137423857 -69.46166369013898,-103.33040439261144 -104.22221114222562,-103.33040439261144 -120.71067811865476,-86.84193741618229 " />
</g>
<g transform="rotate(-270)">
<polygon style="stroke-width:2px;fill:red;stroke:black" points="-111.0259794187348,-77.15723871626234 -103.33040439261144,-84.8528137423857 -50.98407303991324,-84.8528137423857 -69.46166369013898,-103.33040439261144 -104.22221114222562,-103.33040439261144 -120.71067811865476,-86.84193741618229 " />
</g>
<polygon style="stroke-width:2px;fill:red;stroke:black" points="-103.33040439261144,-103.33040439261144 -84.8528137423857,-120.71067811865476 -60.710678118654755,-120.71067811865476 -78.3528137423857,-103.33040439261144 " />
<g transform="rotate(-90)">
<polygon style="stroke-width:2px;fill:red;stroke:black" points="-103.33040439261144,-103.33040439261144 -84.8528137423857,-120.71067811865476 -60.710678118654755,-120.71067811865476 -78.3528137423857,-103.33040439261144 " />
</g>
<g transform="rotate(-180)">
<polygon style="stroke-width:2px;fill:red;stroke:black" points="-103.33040439261144,-103.33040439261144 -84.8528137423857,-120.71067811865476 -60.710678118654755,-120.71067811865476 -78.3528137423857,-103.33040439261144 " />
</g>
<g transform="rotate(-270)">
<polygon style="stroke-width:2px;fill:red;stroke:black" points="-103.33040439261144,-103.33040439261144 -84.8528137423857,-120.71067811865476 -60.710678118654755,-120.71067811865476 -78.3528137423857,-103.33040439261144 " />
</g>
</g>
<g transform="translate(241.421356,-0.000000)">
<polygon style="stroke-width:2px;fill:red;stroke:black" points="28.2842712474619,-28.284271247461906 18.2842712474619,-52.42640687119285 0,-60 -66.37522309215997,-32.506482389687505 -84.8528137423857,-50.98407303991324 -84.8528137423857,-24.852813742385706 -70.71067811865476,-10.710678118654752 0,-40 " />
<g transform="rotate(-90)">
<polygon style="stroke-width:2px;fill:red;stroke:black" points="28.2842712474619,-28.284271247461906 18.2842712474619,-52.42640687119285 0,-60 -66.37522309215997,-32.506482389687505 -84.8528137423857,-50.98407303991324 -84.8528137423857,-24.852813742385706 -70.71067811865476,-10.710678118654752 0,-40 " />
</g>
<g transform="rotate(-180)">
<polygon style="stroke-width:2px;fill:red;stroke:black" points="28.2842712474619,-28.284271247461906 18.2842712474619,-52.42640687119285 0,-60 -66.37522309215997,-32.506482389687505 -84.8528137423857,-50.98407303991324 -84.8528137423857,-24.852813742385706 -70.71067811865476,-10.710678118654752 0,-40 " />
</g>
<g transform="rotate(-270)">
<polygon style="stroke-width:2px;fill:red;stroke:black" points="28.2842712474619,-28.284271247461906 18.2842712474619,-52.42640687119285 0,-60 -66.37522309215997,-32.506482389687505 -84.8528137423857,-50.98407303991324 -84.8528137423857,-24.852813742385706 -70.71067811865476,-10.710678118654752 0,-40 " />
</g>
<polygon style="stroke-width:2px;fill:red;stroke:black" points="-84.8528137423857,-4.852813742385706 -84.8528137423857,-84.8528137423857 -103.33040439261144,-84.8528137423857 -103.33040439261144,-17.199145095083907 -120.71067811865476,-10 -96.5685424949238,-0 " />
<g transform="rotate(-90)">
<polygon style="stroke-width:2px;fill:red;stroke:black" points="-84.8528137423857,-4.852813742385706 -84.8528137423857,-84.8528137423857 -103.33040439261144,-84.8528137423857 -103.33040439261144,-17.199145095083907 -120.71067811865476,-10 -96.5685424949238,-0 " />
</g>
<g transform="rotate(-180)">
<polygon style="stroke-width:2px;fill:red;stroke:black" points="-84.8528137423857,-4.852813742385706 -84.8528137423857,-84.8528137423857 -103.33040439261144,-84.8528137423857 -103.33040439261144,-17.199145095083907 -120.71067811865476,-10 -96.5685424949238,-0 " />
</g>
<g transform="rotate(-270)">
<polygon style="stroke-width:2px;fill:red;stroke:black" points="-84.8528137423857,-4.852813742385706 -84.8528137423857,-84.8528137423857 -103.33040439261144,-84.8528137423857 -103.33040439261144,-17.199145095083907 -120.71067811865476,-10 -96.5685424949238,-0 " />
</g>
<polygon style="stroke-width:2px;fill:red;stroke:black" points="-84.8528137423857,24.852813742385706 -84.8528137423857,4.852813742385706 -120.71067811865476,-10 -120.71067811865476,10 -103.33040439261144,17.199145095083907 -103.33040439261144,43.33040439261144 " />
<g transform="rotate(-90)">
<polygon style="stroke-width:2px;fill:red;stroke:black" points="-84.8528137423857,24.852813742385706 -84.8528137423857,4.852813742385706 -120.71067811865476,-10 -120.71067811865476,10 -103.33040439261144,17.199145095083907 -103.33040439261144,43.33040439261144 " />
</g>
<g transform="rotate(-180)">
<polygon style="stroke-width:2px;fill:red;stroke:black" points="-84.8528137423857,24.852813742385706 -84.8528137423857,4.852813742385706 -120.71067811865476,-10 -120.71067811865476,10 -103.33040439261144,17.199145095083907 -103.33040439261144,43.33040439261144 " />
</g>
<g transform="rotate(-270)">
<polygon style="stroke-width:2px;fill:red;stroke:black" points="-84.8528137423857,24.852813742385706 -84.8528137423857,4.852813742385706 -120.71067811865476,-10 -120.71067811865476,10 -103.33040439261144,17.199145095083907 -103.33040439261144,43.33040439261144 " />
</g>
<polygon style="stroke-width:2px;fill:red;stroke:black" points="-42.42640687119285,42.42640687119285 -52.42640687119285,18.284271247461902 -70.71067811865476,10.710678118654752 -120.71067811865476,60.710678118654755 -107.645048469891,73.77630776741852 -66.37522309215997,32.5064823896875 " />
<g transform="rotate(-90)">
<polygon style="stroke-width:2px;fill:red;stroke:black" points="-42.42640687119285,42.42640687119285 -52.42640687119285,18.284271247461902 -70.71067811865476,10.710678118654752 -120.71067811865476,60.710678118654755 -107.645048469891,73.77630776741852 -66.37522309215997,32.5064823896875 " />
</g>
<g transform="rotate(-180)">
<polygon style="stroke-width:2px;fill:red;stroke:black" points="-42.42640687119285,42.42640687119285 -52.42640687119285,18.284271247461902 -70.71067811865476,10.710678118654752 -120.71067811865476,60.710678118654755 -107.645048469891,73.77630776741852 -66.37522309215997,32.5064823896875 " />
</g>
<g transform="rotate(-270)">
<polygon style="stroke-width:2px;fill:red;stroke:black" points="-42.42640687119285,42.42640687119285 -52.42640687119285,18.284271247461902 -70.71067811865476,10.710678118654752 -120.71067811865476,60.710678118654755 -107.645048469891,73.77630776741852 -66.37522309215997,32.5064823896875 " />
</g>
<polygon style="stroke-width:2px;fill:red;stroke:black" points="-103.33040439261144,-43.33040439261144 -103.33040439261144,-69.46166369013898 -120.71067811865476,-86.84193741618229 -120.71067811865476,-60.710678118654755 " />
<g transform="rotate(-90)">
<polygon style="stroke-width:2px;fill:red;stroke:black" points="-103.33040439261144,-43.33040439261144 -103.33040439261144,-69.46166369013898 -120.71067811865476,-86.84193741618229 -120.71067811865476,-60.710678118654755 " />
</g>
<g transform="rotate(-180)">
<polygon style="stroke-width:2px;fill:red;stroke:black" points="-103.33040439261144,-43.33040439261144 -103.33040439261144,-69.46166369013898 -120.71067811865476,-86.84193741618229 -120.71067811865476,-60.710678118654755 " />
</g>
<g transform="rotate(-270)">
<polygon style="stroke-width:2px;fill:red;stroke:black" points="-103.33040439261144,-43.33040439261144 -103.33040439261144,-69.46166369013898 -120.71067811865476,-86.84193741618229 -120.71067811865476,-60.710678118654755 " />
</g>
<polygon style="stroke-width:2px;fill:red;stroke:black" points="-111.0259794187348,-77.15723871626234 -103.33040439261144,-84.8528137423857 -50.98407303991324,-84.8528137423857 -69.46166369013898,-103.33040439261144 -104.22221114222562,-103.33040439261144 -120.71067811865476,-86.84193741618229 " />
<g transform="rotate(-90)">
<polygon style="stroke-width:2px;fill:red;stroke:black" points="-111.0259794187348,-77.15723871626234 -103.33040439261144,-84.8528137423857 -50.98407303991324,-84.8528137423857 -69.46166369013898,-103.33040439261144 -104.22221114222562,-103.33040439261144 -120.71067811865476,-86.84193741618229 " />
</g>
<g transform="rotate(-180)">
<polygon style="stroke-width:2px;fill:red;stroke:black" points="-111.0259794187348,-77.15723871626234 -103.33040439261144,-84.8528137423857 -50.98407303991324,-84.8528137423857 -69.46166369013898,-103.33040439261144 -104.22221114222562,-103.33040439261144 -120.71067811865476,-86.84193741618229 " />
</g>
<g transform="rotate(-270)">
<polygon style="stroke-width:2px;fill:red;stroke:black" points="-111.0259794187348,-77.15723871626234 -103.33040439261144,-84.8528137423857 -50.98407303991324,-84.8528137423857 -69.46166369013898,-103.33040439261144 -104.22221114222562,-103.33040439261144 -120.71067811865476,-86.84193741618229 " />
</g>
<polygon style="stroke-width:2px;fill:red;stroke:black" points="-103.33040439261144,-103.33040439261144 -84.8528137423857,-120.71067811865476 -60.710678118654755,-120.71067811865476 -78.3528137423857,-103.33040439261144 " />
<g transform="rotate(-90)">
<polygon style="stroke-width:2px;fill:red;stroke:black" points="-103.33040439261144,-103.33040439261144 -84.8528137423857,-120.71067811865476 -60.710678118654755,-120.71067811865476 -78.3528137423857,-103.33040439261144 " />
</g>
<g transform="rotate(-180)">
<polygon style="stroke-width:2px;fill:red;stroke:black" points="-103.33040439261144,-103.33040439261144 -84.8528137423857,-120.71067811865476 -60.710678118654755,-120.71067811865476 -78.3528137423857,-103.33040439261144 " />
</g>
<g transform="rotate(-270)">
<polygon style="stroke-width:2px;fill:red;stroke:black" points="-103.33040439261144,-103.33040439261144 -84.8528137423857,-120.71067811865476 -60.710678118654755,-120.71067811865476 -78.3528137423857,-103.33040439261144 " />
</g>
</g>
<g transform="translate(-241.421356,-0.000000)">
<polygon style="stroke-width:2px;fill:red;stroke:black" points="28.2842712474619,-28.284271247461906 18.2842712474619,-52.42640687119285 0,-60 -66.37522309215997,-32.506482389687505 -84.8528137423857,-50.98407303991324 -84.8528137423857,-24.852813742385706 -70.71067811865476,-10.710678118654752 0,-40 " />
<g transform="rotate(-90)">
<polygon style="stroke-width:2px;fill:red;stroke:black" points="28.2842712474619,-28.284271247461906 18.2842712474619,-52.42640687119285 0,-60 -66.37522309215997,-32.506482389687505 -84.8528137423857,-50.98407303991324 -84.8528137423857,-24.852813742385706 -70.71067811865476,-10.710678118654752 0,-40 " />
</g>
<g transform="rotate(-180)">
<polygon style="stroke-width:2px;fill:red;stroke:black" points="28.2842712474619,-28.284271247461906 18.2842712474619,-52.42640687119285 0,-60 -66.37522309215997,-32.506482389687505 -84.8528137423857,-50.98407303991324 -84.8528137423857,-24.852813742385706 -70.71067811865476,-10.710678118654752 0,-40 " />
</g>
<g transform="rotate(-270)">
<polygon style="stroke-width:2px;fill:red;stroke:black" points="28.2842712474619,-28.284271247461906 18.2842712474619,-52.42640687119285 0,-60 -66.37522309215997,-32.506482389687505 -84.8528137423857,-50.98407303991324 -84.8528137423857,-24.852813742385706 -70.71067811865476,-10.710678118654752 0,-40 " />
</g>
<polygon style="stroke-width:2px;fill:red;stroke:black" points="-84.8528137423857,-4.852813742385706 -84.8528137423857,-84.8528137423857 -103.33040439261144,-84.8528137423857 -103.33040439261144,-17.199145095083907 -120.71067811865476,-10 -96.5685424949238,-0 " />
<g transform="rotate(-90)">
<polygon style="stroke-width:2px;fill:red;stroke:black" points="-84.8528137423857,-4.852813742385706 -84.8528137423857,-84.8528137423857 -103.33040439261144,-84.8528137423857 -103.33040439261144,-17.199145095083907 -120.71067811865476,-10 -96.5685424949238,-0 " />
</g>
<g transform="rotate(-180)">
<polygon style="stroke-width:2px;fill:red;stroke:black" points="-84.8528137423857,-4.852813742385706 -84.8528137423857,-84.8528137423857 -103.33040439261144,-84.8528137423857 -103.33040439261144,-17.199145095083907 -120.71067811865476,-10 -96.5685424949238,-0 " />
</g>
<g transform="rotate(-270)">
<polygon style="stroke-width:2px;fill:red;stroke:black" points="-84.8528137423857,-4.852813742385706 -84.8528137423857,-84.8528137423857 -103.33040439261144,-84.8528137423857 -103.33040439261144,-17.199145095083907 -120.71067811865476,-10 -96.5685424949238,-0 " />
</g>
<polygon style="stroke-width:2px;fill:red;stroke:black" points="-84.8528137423857,24.852813742385706 -84.8528137423857,4.852813742385706 -120.71067811865476,-10 -120.71067811865476,10 -103.33040439261144,17.199145095083907 -103.33040439261144,43.33040439261144 " />
<g transform="rotate(-90)">
<polygon style="stroke-width:2px;fill:red;stroke:black" points="-84.8528137423857,24.852813742385706 -84.8528137423857,4.852813742385706 -120.71067811865476,-10 -120.71067811865476,10 -103.33040439261144,17.199145095083907 -103.33040439261144,43.33040439261144 " />
</g>
<g transform="rotate(-180)">
<polygon style="stroke-width:2px;fill:red;stroke:black" points="-84.8528137423857,24.852813742385706 -84.8528137423857,4.852813742385706 -120.71067811865476,-10 -120.71067811865476,10 -103.33040439261144,17.199145095083907 -103.33040439261144,43.33040439261144 " />
</g>
<g transform="rotate(-270)">
<polygon style="stroke-width:2px;fill:red;stroke:black" points="-84.8528137423857,24.852813742385706 -84.8528137423857,4.852813742385706 -120.71067811865476,-10 -120.71067811865476,10 -103.33040439261144,17.199145095083907 -103.33040439261144,43.33040439261144 " />
</g>
<polygon style="stroke-width:2px;fill:red;stroke:black" points="-42.42640687119285,42.42640687119285 -52.42640687119285,18.284271247461902 -70.71067811865476,10.710678118654752 -120.71067811865476,60.710678118654755 -107.645048469891,73.77630776741852 -66.37522309215997,32.5064823896875 " />
<g transform="rotate(-90)">
<polygon style="stroke-width:2px;fill:red;stroke:black" points="-42.42640687119285,42.42640687119285 -52.42640687119285,18.284271247461902 -70.71067811865476,10.710678118654752 -120.71067811865476,60.710678118654755 -107.645048469891,73.77630776741852 -66.37522309215997,32.5064823896875 " />
</g>
<g transform="rotate(-180)">
<polygon style="stroke-width:2px;fill:red;stroke:black" points="-42.42640687119285,42.42640687119285 -52.42640687119285,18.284271247461902 -70.71067811865476,10.710678118654752 -120.71067811865476,60.710678118654755 -107.645048469891,73.77630776741852 -66.37522309215997,32.5064823896875 " />
</g>
<g transform="rotate(-270)">
<polygon style="stroke-width:2px;fill:red;stroke:black" points="-42.42640687119285,42.42640687119285 -52.42640687119285,18.284271247461902 -70.71067811865476,10.710678118654752 -120.71067811865476,60.710678118654755 -107.645048469891,73.77630776741852 -66.37522309215997,32.5064823896875 " />
</g>
<polygon style="stroke-width:2px;fill:red;stroke:black" points="-103.33040439261144,-43.33040439261144 -103.33040439261144,-69.46166369013898 -120.71067811865476,-86.84193741618229 -120.71067811865476,-60.710678118654755 " />
<g transform="rotate(-90)">
<polygon style="stroke-width:2px;fill:red;stroke:black" points="-103.33040439261144,-43.33040439261144 -103.33040439261144,-69.46166369013898 -120.71067811865476,-86.84193741618229 -120.71067811865476,-60.710678118654755 " />
</g>
<g transform="rotate(-180)">
<polygon style="stroke-width:2px;fill:red;stroke:black" points="-103.33040439261144,-43.33040439261144 -103.33040439261144,-69.46166369013898 -120.71067811865476,-86.84193741618229 -120.71067811865476,-60.710678118654755 " />
</g>
<g transform="rotate(-270)">
<polygon style="stroke-width:2px;fill:red;stroke:black" points="-103.33040439261144,-43.33040439261144 -103.33040439261144,-69.46166369013898 -120.71067811865476,-86.84193741618229 -120.71067811865476,-60.710678118654755 " />
</g>
<polygon style="stroke-width:2px;fill:red;stroke:black" points="-111.0259794187348,-77.15723871626234 -103.33040439261144,-84.8528137423857 -50.98407303991324,-84.8528137423857 -69.46166369013898,-103.33040439261144 -104.22221114222562,-103.33040439261144 -120.71067811865476,-86.84193741618229 " />
<g transform="rotate(-90)">
<polygon style="stroke-width:2px;fill:red;stroke:black" points="-111.0259794187348,-77.15723871626234 -103.33040439261144,-84.8528137423857 -50.98407303991324,-84.8528137423857 -69.46166369013898,-103.33040439261144 -104.22221114222562,-103.33040439261144 -120.71067811865476,-86.84193741618229 " />
</g>
<g transform="rotate(-180)">
<polygon style="stroke-width:2px;fill:red;stroke:black" points="-111.0259794187348,-77.15723871626234 -103.33040439261144,-84.8528137423857 -50.98407303991324,-84.8528137423857 -69.46166369013898,-103.33040439261144 -104.22221114222562,-103.33040439261144 -120.71067811865476,-86.84193741618229 " />
</g>
<g transform="rotate(-270)">
<polygon style="stroke-width:2px;fill:red;stroke:black" points="-111.0259794187348,-77.15723871626234 -103.33040439261144,-84.8528137423857 -50.98407303991324,-84.8528137423857 -69.46166369013898,-103.33040439261144 -104.22221114222562,-103.33040439261144 -120.71067811865476,-86.84193741618229 " />
</g>
<polygon style="stroke-width:2px;fill:red;stroke:black" points="-103.33040439261144,-103.33040439261144 -84.8528137423857,-120.71067811865476 -60.710678118654755,-120.71067811865476 -78.3528137423857,-103.33040439261144 " />
<g transform="rotate(-90)">
<polygon style="stroke-width:2px;fill:red;stroke:black" points="-103.33040439261144,-103.33040439261144 -84.8528137423857,-120.71067811865476 -60.710678118654755,-120.71067811865476 -78.3528137423857,-103.33040439261144 " />
</g>
<g transform="rotate(-180)">
<polygon style="stroke-width:2px;fill:red;stroke:black" points="-103.33040439261144,-103.33040439261144 -84.8528137423857,-120.71067811865476 -60.710678118654755,-120.71067811865476 -78.3528137423857,-103.33040439261144 " />
</g>
<g transform="rotate(-270)">
<polygon style="stroke-width:2px;fill:red;stroke:black" points="-103.33040439261144,-103.33040439261144 -84.8528137423857,-120.71067811865476 -60.710678118654755,-120.71067811865476 -78.3528137423857,-103.33040439261144 " />
</g>
</g>
<g transform="translate(-241.421356,241.421356)">
<polygon style="stroke-width:2px;fill:red;stroke:black" points="28.2842712474619,-28.284271247461906 18.2842712474619,-52.42640687119285 0,-60 -66.37522309215997,-32.506482389687505 -84.8528137423857,-50.98407303991324 -84.8528137423857,-24.852813742385706 -70.71067811865476,-10.710678118654752 0,-40 " />
<g transform="rotate(-90)">
<polygon style="stroke-width:2px;fill:red;stroke:black" points="28.2842712474619,-28.284271247461906 18.2842712474619,-52.42640687119285 0,-60 -66.37522309215997,-32.506482389687505 -84.8528137423857,-50.98407303991324 -84.8528137423857,-24.852813742385706 -70.71067811865476,-10.710678118654752 0,-40 " />
</g>
<g transform="rotate(-180)">
<polygon style="stroke-width:2px;fill:red;stroke:black" points="28.2842712474619,-28.284271247461906 18.2842712474619,-52.42640687119285 0,-60 -66.37522309215997,-32.506482389687505 -84.8528137423857,-50.98407303991324 -84.8528137423857,-24.852813742385706 -70.71067811865476,-10.710678118654752 0,-40 " />
</g>
<g transform="rotate(-270)">
<polygon style="stroke-width:2px;fill:red;stroke:black" points="28.2842712474619,-28.284271247461906 18.2842712474619,-52.42640687119285 0,-60 -66.37522309215997,-32.506482389687505 -84.8528137423857,-50.98407303991324 -84.8528137423857,-24.852813742385706 -70.71067811865476,-10.710678118654752 0,-40 " />
</g>
<polygon style="stroke-width:2px;fill:red;stroke:black" points="-84.8528137423857,-4.852813742385706 -84.8528137423857,-84.8528137423857 -103.33040439261144,-84.8528137423857 -103.33040439261144,-17.199145095083907 -120.71067811865476,-10 -96.5685424949238,-0 " />
<g transform="rotate(-90)">
<polygon style="stroke-width:2px;fill:red;stroke:black" points="-84.8528137423857,-4.852813742385706 -84.8528137423857,-84.8528137423857 -103.33040439261144,-84.8528137423857 -103.33040439261144,-17.199145095083907 -120.71067811865476,-10 -96.5685424949238,-0 " />
</g>
<g transform="rotate(-180)">
<polygon style="stroke-width:2px;fill:red;stroke:black" points="-84.8528137423857,-4.852813742385706 -84.8528137423857,-84.8528137423857 -103.33040439261144,-84.8528137423857 -103.33040439261144,-17.199145095083907 -120.71067811865476,-10 -96.5685424949238,-0 " />
</g>
<g transform="rotate(-270)">
<polygon style="stroke-width:2px;fill:red;stroke:black" points="-84.8528137423857,-4.852813742385706 -84.8528137423857,-84.8528137423857 -103.33040439261144,-84.8528137423857 -103.33040439261144,-17.199145095083907 -120.71067811865476,-10 -96.5685424949238,-0 " />
</g>
<polygon style="stroke-width:2px;fill:red;stroke:black" points="-84.8528137423857,24.852813742385706 -84.8528137423857,4.852813742385706 -120.71067811865476,-10 -120.71067811865476,10 -103.33040439261144,17.199145095083907 -103.33040439261144,43.33040439261144 " />
<g transform="rotate(-90)">
<polygon style="stroke-width:2px;fill:red;stroke:black" points="-84.8528137423857,24.852813742385706 -84.8528137423857,4.852813742385706 -120.71067811865476,-10 -120.71067811865476,10 -103.33040439261144,17.199145095083907 -103.33040439261144,43.33040439261144 " />
</g>
<g transform="rotate(-180)">
<polygon style="stroke-width:2px;fill:red;stroke:black" points="-84.8528137423857,24.852813742385706 -84.8528137423857,4.852813742385706 -120.71067811865476,-10 -120.71067811865476,10 -103.33040439261144,17.199145095083907 -103.33040439261144,43.33040439261144 " />
</g>
<g transform="rotate(-270)">
<polygon style="stroke-width:2px;fill:red;stroke:black" points="-84.8528137423857,24.852813742385706 -84.8528137423857,4.852813742385706 -120.71067811865476,-10 -120.71067811865476,10 -103.33040439261144,17.199145095083907 -103.33040439261144,43.33040439261144 " />
</g>
<polygon style="stroke-width:2px;fill:red;stroke:black" points="-42.42640687119285,42.42640687119285 -52.42640687119285,18.284271247461902 -70.71067811865476,10.710678118654752 -120.71067811865476,60.710678118654755 -107.645048469891,73.77630776741852 -66.37522309215997,32.5064823896875 " />
<g transform="rotate(-90)">
<polygon style="stroke-width:2px;fill:red;stroke:black" points="-42.42640687119285,42.42640687119285 -52.42640687119285,18.284271247461902 -70.71067811865476,10.710678118654752 -120.71067811865476,60.710678118654755 -107.645048469891,73.77630776741852 -66.37522309215997,32.5064823896875 " />
</g>
<g transform="rotate(-180)">
<polygon style="stroke-width:2px;fill:red;stroke:black" points="-42.42640687119285,42.42640687119285 -52.42640687119285,18.284271247461902 -70.71067811865476,10.710678118654752 -120.71067811865476,60.710678118654755 -107.645048469891,73.77630776741852 -66.37522309215997,32.5064823896875 " />
</g>
<g transform="rotate(-270)">
<polygon style="stroke-width:2px;fill:red;stroke:black" points="-42.42640687119285,42.42640687119285 -52.42640687119285,18.284271247461902 -70.71067811865476,10.710678118654752 -120.71067811865476,60.710678118654755 -107.645048469891,73.77630776741852 -66.37522309215997,32.5064823896875 " />
</g>
<polygon style="stroke-width:2px;fill:red;stroke:black" points="-103.33040439261144,-43.33040439261144 -103.33040439261144,-69.46166369013898 -120.71067811865476,-86.84193741618229 -120.71067811865476,-60.710678118654755 " />
<g transform="rotate(-90)">
<polygon style="stroke-width:2px;fill:red;stroke:black" points="-103.33040439261144,-43.33040439261144 -103.33040439261144,-69.46166369013898 -120.71067811865476,-86.84193741618229 -120.71067811865476,-60.710678118654755 " />
</g>
<g transform="rotate(-180)">
<polygon style="stroke-width:2px;fill:red;stroke:black" points="-103.33040439261144,-43.33040439261144 -103.33040439261144,-69.46166369013898 -120.71067811865476,-86.84193741618229 -120.71067811865476,-60.710678118654755 " />
</g>
<g transform="rotate(-270)">
<polygon style="stroke-width:2px;fill:red;stroke:black" points="-103.33040439261144,-43.33040439261144 -103.33040439261144,-69.46166369013898 -120.71067811865476,-86.84193741618229 -120.71067811865476,-60.710678118654755 " />
</g>
<polygon style="stroke-width:2px;fill:red;stroke:black" points="-111.0259794187348,-77.15723871626234 -103.33040439261144,-84.8528137423857 -50.98407303991324,-84.8528137423857 -69.46166369013898,-103.33040439261144 -104.22221114222562,-103.33040439261144 -120.71067811865476,-86.84193741618229 " />
<g transform="rotate(-90)">
<polygon style="stroke-width:2px;fill:red;stroke:black" points="-111.0259794187348,-77.15723871626234 -103.33040439261144,-84.8528137423857 -50.98407303991324,-84.8528137423857 -69.46166369013898,-103.33040439261144 -104.22221114222562,-103.33040439261144 -120.71067811865476,-86.84193741618229 " />
</g>
<g transform="rotate(-180)">
<polygon style="stroke-width:2px;fill:red;stroke:black" points="-111.0259794187348,-77.15723871626234 -103.33040439261144,-84.8528137423857 -50.98407303991324,-84.8528137423857 -69.46166369013898,-103.33040439261144 -104.22221114222562,-103.33040439261144 -120.71067811865476,-86.84193741618229 " />
</g>
<g transform="rotate(-270)">
<polygon style="stroke-width:2px;fill:red;stroke:black" points="-111.0259794187348,-77.15723871626234 -103.33040439261144,-84.8528137423857 -50.98407303991324,-84.8528137423857 -69.46166369013898,-103.33040439261144 -104.22221114222562,-103.33040439261144 -120.71067811865476,-86.84193741618229 " />
</g>
<polygon style="stroke-width:2px;fill:red;stroke:black" points="-103.33040439261144,-103.33040439261144 -84.8528137423857,-120.71067811865476 -60.710678118654755,-120.71067811865476 -78.3528137423857,-103.33040439261144 " />
<g transform="rotate(-90)">
<polygon style="stroke-width:2px;fill:red;stroke:black" points="-103.33040439261144,-103.33040439261144 -84.8528137423857,-120.71067811865476 -60.710678118654755,-120.71067811865476 -78.3528137423857,-103.33040439261144 " />
</g>
<g transform="rotate(-180)">
<polygon style="stroke-width:2px;fill:red;stroke:black" points="-103.33040439261144,-103.33040439261144 -84.8528137423857,-120.71067811865476 -60.710678118654755,-120.71067811865476 -78.3528137423857,-103.33040439261144 " />
</g>
<g transform="rotate(-270)">
<polygon style="stroke-width:2px;fill:red;stroke:black" points="-103.33040439261144,-103.33040439261144 -84.8528137423857,-120.71067811865476 -60.710678118654755,-120.71067811865476 -78.3528137423857,-103.33040439261144 " />
</g>
</g>
<g transform="translate(-241.421356,-241.421356)">
<polygon style="stroke-width:2px;fill:red;stroke:black" points="28.2842712474619,-28.284271247461906 18.2842712474619,-52.42640687119285 0,-60 -66.37522309215997,-32.506482389687505 -84.8528137423857,-50.98407303991324 -84.8528137423857,-24.852813742385706 -70.71067811865476,-10.710678118654752 0,-40 " />
<g transform="rotate(-90)">
<polygon style="stroke-width:2px;fill:red;stroke:black" points="28.2842712474619,-28.284271247461906 18.2842712474619,-52.42640687119285 0,-60 -66.37522309215997,-32.506482389687505 -84.8528137423857,-50.98407303991324 -84.8528137423857,-24.852813742385706 -70.71067811865476,-10.710678118654752 0,-40 " />
</g>
<g transform="rotate(-180)">
<polygon style="stroke-width:2px;fill:red;stroke:black" points="28.2842712474619,-28.284271247461906 18.2842712474619,-52.42640687119285 0,-60 -66.37522309215997,-32.506482389687505 -84.8528137423857,-50.98407303991324 -84.8528137423857,-24.852813742385706 -70.71067811865476,-10.710678118654752 0,-40 " />
</g>
<g transform="rotate(-270)">
<polygon style="stroke-width:2px;fill:red;stroke:black" points="28.2842712474619,-28.284271247461906 18.2842712474619,-52.42640687119285 0,-60 -66.37522309215997,-32.506482389687505 -84.8528137423857,-50.98407303991324 -84.8528137423857,-24.852813742385706 -70.71067811865476,-10.710678118654752 0,-40 " />
</g>
<polygon style="stroke-width:2px;fill:red;stroke:black" points="-84.8528137423857,-4.852813742385706 -84.8528137423857,-84.8528137423857 -103.33040439261144,-84.8528137423857 -103.33040439261144,-17.199145095083907 -120.71067811865476,-10 -96.5685424949238,-0 " />
<g transform="rotate(-90)">
<polygon style="stroke-width:2px;fill:red;stroke:black" points="-84.8528137423857,-4.852813742385706 -84.8528137423857,-84.8528137423857 -103.33040439261144,-84.8528137423857 -103.33040439261144,-17.199145095083907 -120.71067811865476,-10 -96.5685424949238,-0 " />
</g>
<g transform="rotate(-180)">
<polygon style="stroke-width:2px;fill:red;stroke:black" points="-84.8528137423857,-4.852813742385706 -84.8528137423857,-84.8528137423857 -103.33040439261144,-84.8528137423857 -103.33040439261144,-17.199145095083907 -120.71067811865476,-10 -96.5685424949238,-0 " />
</g>
<g transform="rotate(-270)">
<polygon style="stroke-width:2px;fill:red;stroke:black" points="-84.8528137423857,-4.852813742385706 -84.8528137423857,-84.8528137423857 -103.33040439261144,-84.8528137423857 -103.33040439261144,-17.199145095083907 -120.71067811865476,-10 -96.5685424949238,-0 " />
</g>
<polygon style="stroke-width:2px;fill:red;stroke:black" points="-84.8528137423857,24.852813742385706 -84.8528137423857,4.852813742385706 -120.71067811865476,-10 -120.71067811865476,10 -103.33040439261144,17.199145095083907 -103.33040439261144,43.33040439261144 " />
<g transform="rotate(-90)">
<polygon style="stroke-width:2px;fill:red;stroke:black" points="-84.8528137423857,24.852813742385706 -84.8528137423857,4.852813742385706 -120.71067811865476,-10 -120.71067811865476,10 -103.33040439261144,17.199145095083907 -103.33040439261144,43.33040439261144 " />
</g>
<g transform="rotate(-180)">
<polygon style="stroke-width:2px;fill:red;stroke:black" points="-84.8528137423857,24.852813742385706 -84.8528137423857,4.852813742385706 -120.71067811865476,-10 -120.71067811865476,10 -103.33040439261144,17.199145095083907 -103.33040439261144,43.33040439261144 " />
</g>
<g transform="rotate(-270)">
<polygon style="stroke-width:2px;fill:red;stroke:black" points="-84.8528137423857,24.852813742385706 -84.8528137423857,4.852813742385706 -120.71067811865476,-10 -120.71067811865476,10 -103.33040439261144,17.199145095083907 -103.33040439261144,43.33040439261144 " />
</g>
<polygon style="stroke-width:2px;fill:red;stroke:black" points="-42.42640687119285,42.42640687119285 -52.42640687119285,18.284271247461902 -70.71067811865476,10.710678118654752 -120.71067811865476,60.710678118654755 -107.645048469891,73.77630776741852 -66.37522309215997,32.5064823896875 " />
<g transform="rotate(-90)">
<polygon style="stroke-width:2px;fill:red;stroke:black" points="-42.42640687119285,42.42640687119285 -52.42640687119285,18.284271247461902 -70.71067811865476,10.710678118654752 -120.71067811865476,60.710678118654755 -107.645048469891,73.77630776741852 -66.37522309215997,32.5064823896875 " />
</g>
<g transform="rotate(-180)">
<polygon style="stroke-width:2px;fill:red;stroke:black" points="-42.42640687119285,42.42640687119285 -52.42640687119285,18.284271247461902 -70.71067811865476,10.710678118654752 -120.71067811865476,60.710678118654755 -107.645048469891,73.77630776741852 -66.37522309215997,32.5064823896875 " />
</g>
<g transform="rotate(-270)">
<polygon style="stroke-width:2px;fill:red;stroke:black" points="-42.42640687119285,42.42640687119285 -52.42640687119285,18.284271247461902 -70.71067811865476,10.710678118654752 -120.71067811865476,60.710678118654755 -107.645048469891,73.77630776741852 -66.37522309215997,32.5064823896875 " />
</g>
<polygon style="stroke-width:2px;fill:red;stroke:black" points="-103.33040439261144,-43.33040439261144 -103.33040439261144,-69.46166369013898 -120.71067811865476,-86.84193741618229 -120.71067811865476,-60.710678118654755 " />
<g transform="rotate(-90)">
<polygon style="stroke-width:2px;fill:red;stroke:black" points="-103.33040439261144,-43.33040439261144 -103.33040439261144,-69.46166369013898 -120.71067811865476,-86.84193741618229 -120.71067811865476,-60.710678118654755 " />
</g>
<g transform="rotate(-180)">
<polygon style="stroke-width:2px;fill:red;stroke:black" points="-103.33040439261144,-43.33040439261144 -103.33040439261144,-69.46166369013898 -120.71067811865476,-86.84193741618229 -120.71067811865476,-60.710678118654755 " />
</g>
<g transform="rotate(-270)">
<polygon style="stroke-width:2px;fill:red;stroke:black" points="-103.33040439261144,-43.33040439261144 -103.33040439261144,-69.46166369013898 -120.71067811865476,-86.84193741618229 -120.71067811865476,-60.710678118654755 " />
</g>
<polygon style="stroke-width:2px;fill:red;stroke:black" points="-111.0259794187348,-77.15723871626234 -103.33040439261144,-84.8528137423857 -50.98407303991324,-84.8528137423857 -69.46166369013898,-103.33040439261144 -104.22221114222562,-103.33040439261144 -120.71067811865476,-86.84193741618229 " />
<g transform="rotate(-90)">
<polygon style="stroke-width:2px;fill:red;stroke:black" points="-111.0259794187348,-77.15723871626234 -103.33040439261144,-84.8528137423857 -50.98407303991324,-84.8528137423857 -69.46166369013898,-103.33040439261144 -104.22221114222562,-103.33040439261144 -120.71067811865476,-86.84193741618229 " />
</g>
<g transform="rotate(-180)">
<polygon style="stroke-width:2px;fill:red;stroke:black" points="-111.0259794187348,-77.15723871626234 -103.33040439261144,-84.8528137423857 -50.98407303991324,-84.8528137423857 -69.46166369013898,-103.33040439261144 -104.22221114222562,-103.33040439261144 -120.71067811865476,-86.84193741618229 " />
</g>
<g transform="rotate(-270)">
<polygon style="stroke-width:2px;fill:red;stroke:black" points="-111.0259794187348,-77.15723871626234 -103.33040439261144,-84.8528137423857 -50.98407303991324,-84.8528137423857 -69.46166369013898,-103.33040439261144 -104.22221114222562,-103.33040439261144 -120.71067811865476,-86.84193741618229 " />
</g>
<polygon style="stroke-width:2px;fill:red;stroke:black" points="-103.33040439261144,-103.33040439261144 -84.8528137423857,-120.71067811865476 -60.710678118654755,-120.71067811865476 -78.3528137423857,-103.33040439261144 " />
<g transform="rotate(-90)">
<polygon style="stroke-width:2px;fill:red;stroke:black" points="-103.33040439261144,-103.33040439261144 -84.8528137423857,-120.71067811865476 -60.710678118654755,-120.71067811865476 -78.3528137423857,-103.33040439261144 " />
</g>
<g transform="rotate(-180)">
<polygon style="stroke-width:2px;fill:red;stroke:black" points="-103.33040439261144,-103.33040439261144 -84.8528137423857,-120.71067811865476 -60.710678118654755,-120.71067811865476 -78.3528137423857,-103.33040439261144 " />
</g>
<g transform="rotate(-270)">
<polygon style="stroke-width:2px;fill:red;stroke:black" points="-103.33040439261144,-103.33040439261144 -84.8528137423857,-120.71067811865476 -60.710678118654755,-120.71067811865476 -78.3528137423857,-103.33040439261144 " />
</g>
</g>
</g>
</g>
</g>
</svg>
